<svg width="20" height="21" viewBox="0 0 20 21" fill="none" xmlns="http://www.w3.org/2000/svg">
<path fill-rule="evenodd" clip-rule="evenodd" d="M5.639 0.72C5.77952 0.579308 5.97015 0.500175 6.169 0.5H13.833C14.0318 0.500175 14.2225 0.579308 14.363 0.72L19.781 6.138C19.922 6.278 20.001 6.47 20.001 6.668V14.332C20.0008 14.5308 19.9217 14.7215 19.781 14.862L14.363 20.28C14.2225 20.4207 14.0318 20.4998 13.833 20.5H6.169C5.97015 20.4998 5.77952 20.4207 5.639 20.28L0.219 14.862C0.0786743 14.7213 -9.01592e-05 14.5307 7.74494e-08 14.332V6.668C0.000175129 6.46915 0.0793077 6.27852 0.22 6.138L5.638 0.718L5.639 0.72ZM6.481 2L1.501 6.98V14.02L6.481 19H13.521L18.501 14.02V6.98L13.521 2H6.481ZM5.001 10.25C5.001 10.0511 5.08002 9.86032 5.22067 9.71967C5.36132 9.57902 5.55209 9.5 5.751 9.5H14.251C14.4499 9.5 14.6407 9.57902 14.7813 9.71967C14.922 9.86032 15.001 10.0511 15.001 10.25C15.001 10.4489 14.922 10.6397 14.7813 10.7803C14.6407 10.921 14.4499 11 14.251 11H5.751C5.55209 11 5.36132 10.921 5.22067 10.7803C5.08002 10.6397 5.001 10.4489 5.001 10.25Z" fill="#FF5353"/>
</svg>
