<svg width="13" height="13" viewBox="0 0 13 13" fill="none" xmlns="http://www.w3.org/2000/svg">
    <path d="M7.00753 6.09258L11.8675 1.23258C11.9767 1.10505 12.0338 0.940996 12.0273 0.773212C12.0209 0.605428 11.9513 0.446269 11.8326 0.327539C11.7138 0.20881 11.5547 0.139254 11.3869 0.132774C11.2191 0.126293 11.0551 0.183364 10.9275 0.292582L6.06753 5.15258L1.20753 0.285915C1.07999 0.176697 0.915943 0.119627 0.748159 0.126108C0.580375 0.132588 0.421216 0.202143 0.302486 0.320873C0.183756 0.439602 0.114201 0.598762 0.10772 0.766546C0.10124 0.93433 0.158311 1.09838 0.267528 1.22591L5.12753 6.09258L0.260861 10.9526C0.191073 11.0123 0.134393 11.0859 0.0943777 11.1686C0.0543622 11.2513 0.0318751 11.3414 0.0283288 11.4332C0.0247825 11.525 0.0402531 11.6166 0.0737695 11.7021C0.107286 11.7877 0.158125 11.8654 0.223095 11.9303C0.288064 11.9953 0.365763 12.0462 0.451313 12.0797C0.536863 12.1132 0.628417 12.1287 0.72023 12.1251C0.812043 12.1216 0.902131 12.0991 0.984841 12.0591C1.06755 12.0191 1.1411 11.9624 1.20086 11.8926L6.06753 7.03258L10.9275 11.8926C11.0551 12.0018 11.2191 12.0589 11.3869 12.0524C11.5547 12.0459 11.7138 11.9764 11.8326 11.8576C11.9513 11.7389 12.0209 11.5797 12.0273 11.412C12.0338 11.2442 11.9767 11.0801 11.8675 10.9526L7.00753 6.09258Z" fill="#9D9D9D"/>
    </svg>
    