<svg width="115" height="115" viewBox="0 0 115 115" fill="none" xmlns="http://www.w3.org/2000/svg">
<path d="M82.7657 16.1563C82.7657 15.5471 83.0077 14.9629 83.4385 14.5321C83.8692 14.1014 84.4534 13.8594 85.0626 13.8594H96.547V2.37501C96.547 1.76584 96.7889 1.18162 97.2197 0.75087C97.6504 0.320123 98.2347 0.0781306 98.8438 0.0781306C99.453 0.0781306 100.037 0.320123 100.468 0.75087C100.899 1.18162 101.141 1.76584 101.141 2.37501V13.8594H112.625C113.234 13.8594 113.818 14.1014 114.249 14.5321C114.68 14.9629 114.922 15.5471 114.922 16.1563C114.922 16.7654 114.68 17.3496 114.249 17.7804C113.818 18.2111 113.234 18.4531 112.625 18.4531H101.141V29.9375C101.141 30.5467 100.899 31.1309 100.468 31.5616C100.037 31.9924 99.453 32.2344 98.8438 32.2344C98.2347 32.2344 97.6504 31.9924 97.2197 31.5616C96.7889 31.1309 96.547 30.5467 96.547 29.9375V18.4531H85.0626C84.4534 18.4531 83.8692 18.2111 83.4385 17.7804C83.0077 17.3496 82.7657 16.7654 82.7657 16.1563ZM114.212 48.4452C114.685 51.4402 114.922 54.4678 114.922 57.5C114.925 65.4932 113.256 73.3987 110.021 80.708C106.786 88.0174 102.057 94.5688 96.1381 99.9411C95.9989 100.106 95.8369 100.251 95.6569 100.371C85.1568 109.742 71.575 114.922 57.5009 114.922C43.4268 114.922 29.8448 109.743 19.3444 100.372C19.1635 100.252 19.0007 100.107 18.8609 99.9405C10.2886 92.1458 4.27603 81.9392 1.61382 70.6629C-1.04839 59.3866 -0.23557 47.5686 3.94539 36.7629C8.12636 25.9573 15.4797 16.67 25.0384 10.1223C34.5972 3.57454 45.9138 0.0730148 57.5001 0.0781306C60.5323 0.0779862 63.5598 0.315483 66.5549 0.788439C66.8553 0.832886 67.1438 0.936436 67.4039 1.0931C67.6639 1.24976 67.8904 1.45643 68.0701 1.70115C68.2498 1.94587 68.3792 2.22379 68.4508 2.51883C68.5224 2.81387 68.5348 3.12018 68.4873 3.42005C68.4397 3.71991 68.3332 4.00738 68.1739 4.26583C68.0146 4.52428 67.8056 4.74858 67.5591 4.92576C67.3125 5.10294 67.0333 5.22948 66.7376 5.29807C66.4418 5.36665 66.1354 5.37592 65.836 5.32534C63.0787 4.8901 60.2915 4.67161 57.5001 4.67188C47.0618 4.66659 36.8561 7.75531 28.1724 13.5478C19.4887 19.3403 12.7168 27.5766 8.7121 37.2162C4.70743 46.8558 3.64975 57.466 5.67268 67.7065C7.69561 77.9469 12.7084 87.358 20.0777 94.7507C25.7792 85.2029 34.9268 78.2067 45.6344 75.2043C40.6578 72.557 36.7094 68.3215 34.4174 63.1715C32.1253 58.0216 31.6213 52.2531 32.9855 46.7837C34.3497 41.3143 37.5038 36.4582 41.9459 32.988C46.3881 29.5178 51.8631 27.6327 57.5001 27.6327C63.137 27.6327 68.6121 29.5178 73.0542 32.988C77.4964 36.4582 80.6504 41.3143 82.0146 46.7837C83.3789 52.2531 82.8749 58.0216 80.5828 63.1715C78.2908 68.3215 74.3424 72.557 69.3657 75.2043C80.0734 78.2066 89.221 85.2029 94.9225 94.7507C99.8108 89.8575 103.687 84.0493 106.331 77.6578C108.974 71.2662 110.332 64.4166 110.328 57.5C110.329 54.7087 110.11 51.9218 109.675 49.1646C109.585 48.5654 109.735 47.9549 110.093 47.466C110.451 46.9772 110.988 46.6496 111.586 46.5547C112.185 46.4598 112.797 46.6052 113.288 46.9593C113.78 47.3134 114.112 47.8475 114.212 48.4452ZM57.5001 73.5781C61.5886 73.5781 65.5853 72.3657 68.9848 70.0943C72.3842 67.8228 75.0338 64.5943 76.5984 60.817C78.163 57.0397 78.5724 52.8833 77.7748 48.8734C76.9771 44.8634 75.0083 41.18 72.1173 38.289C69.2263 35.398 65.5429 33.4292 61.533 32.6316C57.523 31.834 53.3666 32.2433 49.5893 33.8079C45.812 35.3725 42.5835 38.0221 40.312 41.4216C38.0406 44.821 36.8282 48.8177 36.8282 52.9063C36.8343 58.3869 39.0142 63.6414 42.8896 67.5168C46.765 71.3922 52.0194 73.5721 57.5001 73.5781ZM57.5001 110.328C69.9277 110.339 81.9576 105.948 91.4565 97.9348C88.0476 91.934 83.1093 86.9438 77.1445 83.4722C71.1797 80.0007 64.4015 78.1718 57.5001 78.1718C50.5986 78.1718 43.8204 80.0007 37.8557 83.4722C31.8909 86.9438 26.9526 91.934 23.5437 97.9348C33.0425 105.948 45.0725 110.339 57.5001 110.328Z" fill="#00A7B1"/>
</svg>
