<svg width="20" height="19" viewBox="0 0 20 19" fill="none" xmlns="http://www.w3.org/2000/svg">
<path d="M10.0047 9.38839C12.0881 9.38839 13.7771 7.69947 13.7771 5.61607C13.7771 3.53268 12.0881 1.84375 10.0047 1.84375C7.92135 1.84375 6.23242 3.53268 6.23242 5.61607C6.23242 7.69947 7.92135 9.38839 10.0047 9.38839Z" stroke="#BDBDC1" stroke-width="1.50893"/>
<path d="M13.7772 16.9332H4.9243C4.71032 16.9332 4.49877 16.8878 4.30371 16.7998C4.10864 16.7118 3.93452 16.5834 3.79288 16.423C3.65125 16.2626 3.54535 16.0739 3.48222 15.8695C3.41908 15.665 3.40015 15.4495 3.42668 15.2371L3.72093 12.8802C3.78935 12.3326 4.05547 11.8289 4.46923 11.4638C4.88299 11.0986 5.41589 10.8972 5.96772 10.8975H6.23254" stroke="#BDBDC1" stroke-width="1.50893" stroke-linecap="round" stroke-linejoin="round"/>
<path d="M15.2861 10.1431V14.6699" stroke="#BDBDC1" stroke-width="1.50893" stroke-linecap="round" stroke-linejoin="round"/>
<path d="M13.0225 12.4062H17.5492" stroke="#BDBDC1" stroke-width="1.50893" stroke-linecap="round" stroke-linejoin="round"/>
</svg>
