<svg width="25" height="25" viewBox="0 0 25 25" fill="none" xmlns="http://www.w3.org/2000/svg">
    <path fill-rule="evenodd" clip-rule="evenodd" d="M6.55444 18.5209C10.6614 17.9209 13.4892 17.9725 17.6016 18.5419C17.8995 18.585 18.1716 18.7345 18.3678 18.9627C18.564 19.1909 18.671 19.4823 18.669 19.7833C18.669 20.0713 18.57 20.3509 18.3912 20.5693C18.0796 20.95 17.7603 21.3245 17.4336 21.6925H19.0182C19.1178 21.5737 19.218 21.4525 19.3194 21.3295C19.6753 20.893 19.8695 20.347 19.869 19.7839C19.869 18.5689 18.9822 17.5219 17.766 17.3539C13.5564 16.7713 10.614 16.7155 6.38104 17.3341C5.15224 17.5135 4.26904 18.5767 4.26904 19.8001C4.26904 20.3431 4.44604 20.8801 4.78144 21.3151C4.88044 21.4435 4.97824 21.5695 5.07544 21.6931H6.62164C6.3177 21.3292 6.02123 20.9591 5.73244 20.5831C5.56082 20.358 5.46824 20.0825 5.46904 19.7995C5.46904 19.1533 5.93344 18.6115 6.55444 18.5209Z" fill="#00A7B1"/>
    <path fill-rule="evenodd" clip-rule="evenodd" d="M12.069 12.6925C12.5418 12.6925 13.0099 12.5994 13.4467 12.4184C13.8835 12.2375 14.2803 11.9724 14.6146 11.6381C14.9489 11.3038 15.2141 10.9069 15.395 10.4701C15.5759 10.0334 15.669 9.56524 15.669 9.09248C15.669 8.61972 15.5759 8.15159 15.395 7.71482C15.2141 7.27805 14.9489 6.88119 14.6146 6.5469C14.2803 6.21261 13.8835 5.94743 13.4467 5.76651C13.0099 5.5856 12.5418 5.49248 12.069 5.49248C11.1143 5.49248 10.1986 5.87177 9.52346 6.5469C8.84833 7.22203 8.46904 8.1377 8.46904 9.09248C8.46904 10.0473 8.84833 10.9629 9.52346 11.6381C10.1986 12.3132 11.1143 12.6925 12.069 12.6925ZM12.069 13.8925C13.3421 13.8925 14.563 13.3868 15.4632 12.4866C16.3633 11.5864 16.869 10.3655 16.869 9.09248C16.869 7.81944 16.3633 6.59854 15.4632 5.69837C14.563 4.79819 13.3421 4.29248 12.069 4.29248C10.796 4.29248 9.5751 4.79819 8.67493 5.69837C7.77476 6.59854 7.26904 7.81944 7.26904 9.09248C7.26904 10.3655 7.77476 11.5864 8.67493 12.4866C9.5751 13.3868 10.796 13.8925 12.069 13.8925Z" fill="#00A7B1"/>
    <path fill-rule="evenodd" clip-rule="evenodd" d="M12.0688 22.8925C18.0334 22.8925 22.8688 18.0571 22.8688 12.0925C22.8688 6.12793 18.0334 1.29253 12.0688 1.29253C6.10425 1.29253 1.26885 6.12793 1.26885 12.0925C1.26885 18.0571 6.10425 22.8925 12.0688 22.8925ZM12.0688 24.0925C18.6964 24.0925 24.0688 18.7201 24.0688 12.0925C24.0688 5.46493 18.6964 0.0925293 12.0688 0.0925293C5.44125 0.0925293 0.0688477 5.46493 0.0688477 12.0925C0.0688477 18.7201 5.44125 24.0925 12.0688 24.0925Z" fill="#00A7B1"/>
    </svg>
    