<svg width="17" height="17" viewBox="0 0 17 17" fill="none" xmlns="http://www.w3.org/2000/svg">
    <path d="M9.06738 0.842529C9.06738 0.643617 8.98837 0.452852 8.84771 0.312199C8.70706 0.171547 8.5163 0.0925293 8.31738 0.0925293C8.11847 0.0925293 7.92771 0.171547 7.78705 0.312199C7.6464 0.452852 7.56738 0.643617 7.56738 0.842529V7.59253H0.817383C0.61847 7.59253 0.427705 7.67155 0.287053 7.8122C0.146401 7.95285 0.0673828 8.14362 0.0673828 8.34253C0.0673828 8.54144 0.146401 8.73221 0.287053 8.87286C0.427705 9.01351 0.61847 9.09253 0.817383 9.09253H7.56738V15.8425C7.56738 16.0414 7.6464 16.2322 7.78705 16.3729C7.92771 16.5135 8.11847 16.5925 8.31738 16.5925C8.5163 16.5925 8.70706 16.5135 8.84771 16.3729C8.98837 16.2322 9.06738 16.0414 9.06738 15.8425V9.09253H15.8174C16.0163 9.09253 16.2071 9.01351 16.3477 8.87286C16.4884 8.73221 16.5674 8.54144 16.5674 8.34253C16.5674 8.14362 16.4884 7.95285 16.3477 7.8122C16.2071 7.67155 16.0163 7.59253 15.8174 7.59253H9.06738V0.842529Z" fill="#9D9D9D"/>
    </svg>
    