<svg width="25" height="25" viewBox="0 0 25 25" fill="none" xmlns="http://www.w3.org/2000/svg">
    <path d="M9.92176 19.8013C4.46395 19.8013 0.0673828 15.4047 0.0673828 9.94691C0.0673828 4.4891 4.46395 0.0925293 9.92176 0.0925293C15.3796 0.0925293 19.7761 4.4891 19.7761 9.94691C19.7761 15.4047 15.3796 19.8013 9.92176 19.8013ZM9.92176 1.60859C5.29778 1.60859 1.58344 5.32293 1.58344 9.94691C1.58344 14.5709 5.29778 18.2852 9.92176 18.2852C14.5457 18.2852 18.2601 14.5709 18.2601 9.94691C18.2601 5.32293 14.5457 1.60859 9.92176 1.60859Z" fill="#00A7B1"/>
    <path d="M16.7254 16.7495C17.0214 16.4536 17.5012 16.4536 17.7972 16.7495L23.5325 22.4848C23.8285 22.7808 23.8285 23.2607 23.5325 23.5566C23.2365 23.8526 22.7566 23.8526 22.4606 23.5566L16.7254 17.8214C16.4294 17.5254 16.4294 17.0455 16.7254 16.7495Z" fill="#00A7B1"/>
    </svg>
    