<svg width="26" height="26" viewBox="0 0 26 26" fill="none" xmlns="http://www.w3.org/2000/svg">
    <path fill-rule="evenodd" clip-rule="evenodd" d="M13.0689 1.09253C13.6706 1.09253 14.2638 1.1371 14.8415 1.22281L15.7123 3.86106C16.4752 4.07877 17.2003 4.38905 17.8723 4.7799L20.3751 3.57306C21.2614 4.25362 22.0499 5.05589 22.7151 5.95417L21.4636 8.4347C21.8425 9.11354 22.1408 9.84382 22.3448 10.6118L24.9676 11.5255C25.1121 12.6346 25.1023 13.7584 24.9384 14.8649L22.3002 15.7357C22.084 16.4908 21.7754 17.2163 21.3814 17.8957L22.5882 20.3985C21.9067 21.285 21.1053 22.0725 20.2071 22.7385L17.7266 21.4871C17.0477 21.8659 16.3174 22.1642 15.5495 22.3682L14.6358 24.991C13.5266 25.1355 12.4028 25.1257 11.2964 24.9619L10.4255 22.3236C9.67048 22.1074 8.945 21.7988 8.26557 21.4048L5.76275 22.6116C4.87624 21.9301 4.08872 21.1288 3.42279 20.2305L4.6742 17.75C4.29194 17.0633 3.99598 16.3321 3.79307 15.5729L1.17025 14.6575C1.0259 13.5489 1.03571 12.4257 1.1994 11.3198L3.83764 10.449C4.05535 9.68611 4.36563 8.96098 4.75648 8.28899L3.54964 5.78617C4.23113 4.89965 5.03249 4.11213 5.93075 3.44621L8.41128 4.69761C9.09013 4.31876 9.8204 4.02048 10.5884 3.81649L11.5038 1.19367C12.0164 1.12681 12.5392 1.09253 13.0689 1.09253Z" stroke="#00A7B1" stroke-width="0.933" stroke-linecap="round" stroke-linejoin="round"/>
    <path d="M13.069 18.2351C15.9093 18.2351 18.2118 15.9326 18.2118 13.0924C18.2118 10.2521 15.9093 7.94958 13.069 7.94958C10.2288 7.94958 7.92627 10.2521 7.92627 13.0924C7.92627 15.9326 10.2288 18.2351 13.069 18.2351Z" stroke="#00A7B1" stroke-linecap="round" stroke-linejoin="round"/>
    </svg>
    