<svg width="24" height="25" viewBox="0 0 24 25" fill="none" xmlns="http://www.w3.org/2000/svg">
<path d="M18.0929 23.1668H5.90626C5.64972 23.1608 5.39689 23.1042 5.16221 23.0004C4.92754 22.8966 4.71561 22.7476 4.53855 22.5619C4.36148 22.3761 4.22275 22.1573 4.13027 21.918C4.0378 21.6786 3.99339 21.4234 3.99959 21.1668V7.98682H5.33293V21.1668C5.32656 21.2483 5.33637 21.3302 5.36177 21.4079C5.38718 21.4855 5.42769 21.5574 5.48097 21.6194C5.53425 21.6813 5.59925 21.7321 5.67224 21.7689C5.74523 21.8056 5.82476 21.8276 5.90626 21.8335H18.0929C18.1744 21.8276 18.254 21.8056 18.3269 21.7689C18.3999 21.7321 18.4649 21.6813 18.5182 21.6194C18.5715 21.5574 18.612 21.4855 18.6374 21.4079C18.6628 21.3302 18.6726 21.2483 18.6663 21.1668V7.98682H19.9996V21.1668C20.0058 21.4234 19.9614 21.6786 19.8689 21.918C19.7764 22.1573 19.6377 22.3761 19.4606 22.5619C19.2836 22.7476 19.0717 22.8966 18.837 23.0004C18.6023 23.1042 18.3495 23.1608 18.0929 23.1668Z" fill="#9D9D9D"/>
<path d="M20.5203 6.49984H3.33366C3.15685 6.49984 2.98728 6.4296 2.86225 6.30457C2.73723 6.17955 2.66699 6.00998 2.66699 5.83317C2.66699 5.65636 2.73723 5.48679 2.86225 5.36177C2.98728 5.23674 3.15685 5.1665 3.33366 5.1665H20.5203C20.6971 5.1665 20.8667 5.23674 20.9917 5.36177C21.1168 5.48679 21.187 5.65636 21.187 5.83317C21.187 6.00998 21.1168 6.17955 20.9917 6.30457C20.8667 6.4296 20.6971 6.49984 20.5203 6.49984Z" fill="#9D9D9D"/>
<path d="M14 9.1665H15.3333V19.1665H14V9.1665Z" fill="#9D9D9D"/>
<path d="M8.66699 9.1665H10.0003V19.1665H8.66699V9.1665Z" fill="#9D9D9D"/>
<path d="M15.3337 4.40683H14.067V3.16683H9.93366V4.40683H8.66699V3.16683C8.66657 2.82446 8.79785 2.49505 9.03366 2.24683C9.26947 1.99861 9.59172 1.85061 9.93366 1.8335H14.067C14.4089 1.85061 14.7312 1.99861 14.967 2.24683C15.2028 2.49505 15.3341 2.82446 15.3337 3.16683V4.40683Z" fill="#9D9D9D"/>
</svg>
