<svg width="27" height="28" viewBox="0 0 27 28" fill="none" xmlns="http://www.w3.org/2000/svg">
<path fill-rule="evenodd" clip-rule="evenodd" d="M26.0794 14.3023C26.0794 13.359 25.9947 12.452 25.8375 11.5813H13.3086V16.7271H20.468C20.1596 18.39 19.2223 19.7988 17.8134 20.7421V24.08H22.1127C24.6281 21.764 26.0794 18.3537 26.0794 14.3023Z" fill="#4285F4"/>
<path fill-rule="evenodd" clip-rule="evenodd" d="M13.3088 27.3027C16.9006 27.3027 19.9119 26.1115 22.1129 24.0797L17.8137 20.7419C16.6225 21.5401 15.0987 22.0118 13.3088 22.0118C9.84404 22.0118 6.91136 19.6717 5.86527 16.5273H1.4209V19.974C3.60983 24.3216 8.10862 27.3027 13.3088 27.3027Z" fill="#34A853"/>
<path fill-rule="evenodd" clip-rule="evenodd" d="M5.86517 16.5274C5.59911 15.7292 5.44794 14.8766 5.44794 13.9998C5.44794 13.1231 5.59911 12.2705 5.86517 11.4723V8.02563H1.4208C0.519834 9.82152 0.00585938 11.8532 0.00585938 13.9998C0.00585938 16.1464 0.519834 18.1782 1.4208 19.974L5.86517 16.5274Z" fill="#FBBC05"/>
<path fill-rule="evenodd" clip-rule="evenodd" d="M13.3088 5.98794C15.2619 5.98794 17.0155 6.65913 18.3942 7.97732L22.2097 4.16182C19.9059 2.01522 16.8946 0.697021 13.3088 0.697021C8.10862 0.697021 3.60983 3.67808 1.4209 8.0257L5.86527 11.4724C6.91136 8.32803 9.84404 5.98794 13.3088 5.98794Z" fill="#EA4335"/>
</svg>
