<svg width="24" height="24" viewBox="0 0 24 24" fill="none" xmlns="http://www.w3.org/2000/svg">
<path d="M17.7447 8.59338C17.9137 8.77048 18.0054 9.00746 17.9997 9.25219C17.994 9.49692 17.8913 9.72936 17.7142 9.89838L10.945 16.3599C10.7733 16.5238 10.5451 16.6153 10.3077 16.6153C10.0704 16.6153 9.84211 16.5239 9.67039 16.36L6.2857 13.1293C6.19731 13.0457 6.1263 12.9456 6.07675 12.8345C6.02719 12.7235 6.00007 12.6037 5.99694 12.4822C5.9938 12.3606 6.01472 12.2396 6.05849 12.1262C6.10225 12.0127 6.16801 11.909 6.25197 11.821C6.33593 11.7331 6.43645 11.6626 6.54774 11.6136C6.65904 11.5646 6.77892 11.538 6.9005 11.5355C7.02208 11.533 7.14296 11.5545 7.2562 11.5988C7.36944 11.6431 7.4728 11.7094 7.56035 11.7938L10.3077 14.4163L16.4395 8.56304C16.6166 8.39402 16.8536 8.30227 17.0983 8.30796C17.3431 8.31365 17.5755 8.41632 17.7445 8.59338H17.7447ZM24 12C24 14.3734 23.2962 16.6934 21.9776 18.6668C20.6591 20.6402 18.7849 22.1783 16.5922 23.0865C14.3995 23.9948 11.9867 24.2324 9.65892 23.7694C7.33115 23.3064 5.19295 22.1635 3.51472 20.4853C1.83649 18.807 0.693605 16.6689 0.230582 14.3411C-0.232441 12.0133 0.00519941 9.60051 0.913451 7.4078C1.8217 5.21508 3.35977 3.34094 5.33316 2.02236C7.30655 0.703788 9.62663 0 12 0C15.1815 0.00360364 18.2316 1.26904 20.4813 3.5187C22.731 5.76835 23.9964 8.81851 24 12ZM22.1538 12C22.1538 9.99176 21.5583 8.02861 20.4426 6.35882C19.3269 4.68903 17.7411 3.38759 15.8857 2.61907C14.0303 1.85055 11.9887 1.64947 10.0191 2.04126C8.04943 2.43305 6.24019 3.40011 4.82015 4.82015C3.40011 6.24019 2.43305 8.04943 2.04126 10.0191C1.64947 11.9887 1.85055 14.0303 2.61907 15.8857C3.38759 17.7411 4.68904 19.3269 6.35883 20.4426C8.02862 21.5583 9.99176 22.1538 12 22.1538C14.692 22.1508 17.2729 21.08 19.1765 19.1765C21.08 17.2729 22.1508 14.692 22.1538 12Z" fill="#5DCC77"/>
</svg>
