<svg width="88" height="85" viewBox="0 0 88 85" fill="none" xmlns="http://www.w3.org/2000/svg">
<g filter="url(#filter0_d)">
<path d="M63.5512 38.6719C66.5581 35.992 68.2608 32.4199 68.2608 28.7131C68.2608 24.7736 66.4165 21.0893 63.0677 18.3383C59.8085 15.6617 55.4944 14.1875 50.9197 14.1875C46.3449 14.1875 42.0309 15.6617 38.7721 18.3385C35.4233 21.0893 33.5791 24.7736 33.5791 28.7131C33.5791 32.6526 35.4233 36.3368 38.7721 39.0879C42.0309 41.7646 46.3449 43.2388 50.9197 43.2388C51.5293 43.2388 52.1426 43.2119 52.7508 43.1584L53.7898 44.059C57.3695 47.1609 61.9473 48.8685 66.6838 48.8687H68.2603V45.5132L67.7986 45.0516C65.9772 43.2248 64.5339 41.0569 63.5512 38.6719ZM55.8547 41.6763L53.7698 39.8692L53.0746 39.9544C52.3597 40.0418 51.64 40.0857 50.9197 40.0858C43.0967 40.0858 36.7319 34.984 36.7319 28.7131C36.7319 22.4422 43.0967 17.3403 50.9197 17.3403C58.7426 17.3403 65.1074 22.4421 65.1074 28.7131C65.1074 31.8373 63.5487 34.7541 60.7185 36.926L59.8106 37.6227L60.2295 38.8085C61.088 41.2302 62.3499 43.4893 63.9619 45.4902C60.96 44.9891 58.1547 43.6694 55.8547 41.6763Z" fill="#00A7B1"/>
</g>
<g filter="url(#filter1_d)">
<path d="M25.3211 31.2794C26.7968 29.4115 27.9554 27.3137 28.7506 25.07L29.1664 23.8901L28.2593 23.194C25.5904 21.146 24.1206 18.3973 24.1206 15.4543C24.1206 9.54033 30.1316 4.729 37.5201 4.729C42.9556 4.729 47.6454 7.33305 49.745 11.0642C50.1348 11.0453 50.5264 11.0347 50.9197 11.0347C51.7097 11.0347 52.4924 11.073 53.268 11.1496C52.4566 9.0476 51.0475 7.1287 49.1102 5.53751C46.0005 2.98302 41.8849 1.57617 37.5201 1.57617C33.1554 1.57617 29.0398 2.98302 25.9299 5.53751C22.73 8.16608 20.9678 11.6879 20.9678 15.4543C20.9678 18.9815 22.5789 22.3801 25.4261 24.9367C24.4969 27.1727 23.1392 29.2054 21.4296 30.9201L20.9678 31.3818V34.6809H22.5442C25.4593 34.6805 28.3343 34.0017 30.9417 32.6981C30.6558 31.6144 30.4882 30.503 30.442 29.3832C28.8595 30.3107 27.1261 30.9525 25.3211 31.2794Z" fill="#00A7B1"/>
</g>
<path d="M12.4394 63.3089C12.6004 63.5907 12.6809 63.8927 12.6809 64.2147C12.701 64.5368 12.6306 64.8387 12.4696 65.1205C12.2884 65.4828 12.0267 65.7344 11.6846 65.8753C11.3625 65.9961 11.0002 66.0061 10.5976 65.9055C10.4165 65.8652 10.2554 65.7948 10.1145 65.6942C9.97364 65.5935 9.82267 65.4929 9.66165 65.3922C9.52075 65.2715 9.34966 65.1608 9.14837 65.0601C8.96721 64.9595 8.72567 64.889 8.42375 64.8488C8.12182 64.8085 7.7897 64.8085 7.42739 64.8488C7.08521 64.889 6.77322 64.9695 6.49142 65.0903C6.04859 65.3117 5.69635 65.6539 5.43468 66.1169C5.17301 66.5597 5.00191 67.0428 4.9214 67.5661C4.84089 68.0693 4.85095 68.5826 4.95159 69.1059C5.07236 69.6293 5.29378 70.0721 5.61583 70.4344C5.85737 70.7162 6.16936 70.9477 6.5518 71.1288C6.95437 71.31 7.33681 71.4207 7.69912 71.461C8.04131 71.5012 8.38349 71.5012 8.72567 71.461C9.06786 71.4006 9.39998 71.3201 9.72203 71.2194C9.96357 71.1188 10.2353 70.9879 10.5372 70.8269C10.8392 70.6457 11.131 70.535 11.4128 70.4948C11.7751 70.4948 12.0569 70.5954 12.2582 70.7967C12.4595 70.9779 12.6004 71.2093 12.6809 71.4911C12.7614 71.7528 12.7715 72.0346 12.7111 72.3365C12.6708 72.6385 12.5601 72.9001 12.379 73.1215C12.1374 73.4235 11.7953 73.7153 11.3524 73.9971C10.9096 74.2588 10.4869 74.45 10.0843 74.5708C9.60126 74.7318 9.05779 74.8224 8.45394 74.8425C7.87022 74.8627 7.31668 74.8425 6.79334 74.7821C6.5518 74.7419 6.3002 74.6916 6.03853 74.6312C5.77686 74.5708 5.52525 74.5003 5.28371 74.4198C4.39806 74.0978 3.65331 73.6449 3.04946 73.0612C2.46573 72.4573 2.01284 71.783 1.69079 71.0383C1.38886 70.2935 1.21777 69.4984 1.17751 68.653C1.13726 67.8076 1.2379 66.9723 1.47944 66.147C1.70085 65.362 1.97259 64.6978 2.29464 64.1543C2.63682 63.6109 3.02933 63.168 3.47215 62.8259C3.93511 62.4635 4.44838 62.1817 5.01198 61.9805C5.57557 61.759 6.19956 61.5678 6.88392 61.4068C7.58842 61.2659 8.33317 61.2659 9.11818 61.4068C9.90319 61.5477 10.6077 61.8094 11.2317 62.1918C11.7147 62.4535 12.1173 62.8259 12.4394 63.3089ZM26.9292 68.9852C26.9494 69.3877 26.9594 69.8104 26.9594 70.2532C26.9594 70.6759 26.9494 71.0684 26.9292 71.4308C26.9091 71.9742 26.8789 72.4774 26.8387 72.9404C26.7984 73.3832 26.7179 73.7657 26.5971 74.0877C26.4764 74.3896 26.2851 74.6211 26.0235 74.7821C25.7819 74.923 25.4397 74.9633 24.9969 74.9029C24.534 74.8425 24.2018 74.6211 24.0006 74.2387C23.7993 73.8562 23.6584 73.4235 23.5779 72.9404C23.5175 72.4372 23.4973 71.934 23.5175 71.4308C23.5376 70.9275 23.5376 70.535 23.5175 70.2532C23.4973 69.8104 23.4772 69.3072 23.4571 68.7436C23.4571 68.1599 23.3967 67.6164 23.2759 67.1132C23.1753 66.5899 22.9941 66.147 22.7325 65.7847C22.4708 65.4224 22.0783 65.2312 21.555 65.2111C20.8907 65.1708 20.3774 65.2211 20.0151 65.362C19.6729 65.5029 19.4213 65.7143 19.2603 65.9961C19.0993 66.2578 18.9986 66.5798 18.9584 66.9622C18.9383 67.3447 18.898 67.7573 18.8376 68.2001L18.8074 69.3777V71.5817C18.8074 71.944 18.7974 72.3265 18.7772 72.729C18.7772 73.1115 18.7168 73.4637 18.5961 73.7858C18.4753 74.1078 18.2841 74.3796 18.0224 74.601C17.7809 74.8224 17.4186 74.9331 16.9355 74.9331C16.3316 74.9331 15.8787 74.7419 15.5768 74.3594C15.295 73.9569 15.1541 73.4637 15.1541 72.88V55.5192C15.1541 55.3985 15.1541 55.2878 15.1541 55.1871C15.1742 55.0663 15.1944 54.9456 15.2145 54.8248C15.2548 54.704 15.2849 54.5933 15.3051 54.4927C15.3252 54.3719 15.3554 54.2612 15.3957 54.1606C15.456 53.9593 15.5567 53.8083 15.6976 53.7077C15.7982 53.607 15.8989 53.5265 15.9995 53.4661C16.1001 53.4058 16.2109 53.3655 16.3316 53.3454C16.4323 53.3252 16.543 53.3152 16.6637 53.3152C16.7845 53.295 16.9053 53.285 17.0261 53.285C17.328 53.285 17.6198 53.3756 17.9016 53.5567C18.0224 53.6372 18.1331 53.7278 18.2338 53.8284C18.3344 53.909 18.4149 54.0297 18.4753 54.1908C18.6363 54.5732 18.7168 54.9355 18.7168 55.2777C18.737 55.3783 18.747 55.5293 18.747 55.7306C18.7672 55.9117 18.7772 56.103 18.7772 56.3042C18.7772 56.5055 18.7772 56.7068 18.7772 56.9081C18.7974 57.0893 18.8074 57.2302 18.8074 57.3308V57.4818C18.8276 58.1259 18.8376 58.78 18.8376 59.4443C18.8376 60.1085 18.8376 60.7828 18.8376 61.4672V61.9805C19.683 61.6987 20.5687 61.5678 21.4946 61.588C22.4205 61.588 23.2457 61.7691 23.9704 62.1314C24.7151 62.5139 25.2787 62.9466 25.6612 63.4297C26.0637 63.9128 26.3556 64.4462 26.5367 65.0299C26.7179 65.6136 26.8185 66.2376 26.8387 66.9019C26.8789 67.5661 26.9091 68.2605 26.9292 68.9852ZM32.8984 62.222C33.5023 61.9201 34.1363 61.7087 34.8006 61.588C35.4648 61.4471 36.119 61.4169 36.7631 61.4974C37.4273 61.5578 38.0614 61.7289 38.6652 62.0107C39.2691 62.2723 39.8327 62.6548 40.356 63.158C40.8793 63.6813 41.2819 64.255 41.5637 64.879C41.8455 65.5029 42.0468 66.1974 42.1676 66.9622C42.2481 67.4856 42.3789 67.9687 42.5601 68.4115C42.7412 68.8543 42.9324 69.2971 43.1337 69.74C43.3551 70.1828 43.5564 70.6256 43.7376 71.0684C43.9389 71.5113 44.0999 71.9742 44.2207 72.4573C44.3213 72.9203 44.281 73.3732 44.0999 73.816C43.9389 74.2387 43.5967 74.5003 43.0733 74.601C42.7714 74.6614 42.4796 74.6412 42.1978 74.5406C41.9361 74.4198 41.6945 74.2588 41.4731 74.0575C41.2517 73.8361 41.0504 73.6046 40.8693 73.3631C40.7083 73.1014 40.5573 72.8599 40.4164 72.6385C39.9534 73.2423 39.4502 73.7153 38.9068 74.0575C38.3633 74.3796 37.7091 74.5909 36.9442 74.6916C36.3001 74.7721 35.6862 74.7922 35.1025 74.7519C34.5188 74.7117 33.8948 74.601 33.2305 74.4198C32.365 74.1984 31.6505 73.816 31.0869 73.2725C30.5434 72.7089 30.1207 72.0648 29.8188 71.3402C29.537 70.5954 29.386 69.8004 29.3659 68.955C29.3458 68.1096 29.4464 67.2742 29.6678 66.449C29.9496 65.362 30.3723 64.4764 30.9359 63.792C31.4995 63.1077 32.1537 62.5843 32.8984 62.222ZM33.6532 65.7545C33.3714 66.0363 33.15 66.3685 32.989 66.7509C32.828 67.1333 32.7273 67.5359 32.6871 67.9586C32.6669 68.3813 32.7072 68.804 32.8078 69.2267C32.9085 69.6494 33.0695 70.0218 33.2909 70.3438C33.4922 70.6256 33.8344 70.8672 34.3175 71.0684C34.8006 71.2496 35.3038 71.3603 35.8271 71.4006C36.431 71.4408 36.9543 71.2798 37.3971 70.9175C37.8601 70.5552 38.2023 70.1023 38.4237 69.5588C38.6652 68.9952 38.7759 68.4014 38.7558 67.7774C38.7357 67.1333 38.5646 66.5496 38.2425 66.0263C38.001 65.6438 37.6789 65.362 37.2764 65.1809C36.8939 64.9997 36.4813 64.9091 36.0385 64.9091C35.5956 64.889 35.1528 64.9595 34.71 65.1205C34.2873 65.2614 33.935 65.4727 33.6532 65.7545ZM56.0571 61.6181C56.2181 62.0006 56.2282 62.4233 56.0873 62.8862C55.9665 63.3492 55.7351 63.6511 55.3929 63.792C55.2117 63.8725 54.9702 63.943 54.6683 64.0034C54.3663 64.0436 54.0342 64.0839 53.6719 64.1241C53.3297 64.1644 52.9875 64.1946 52.6454 64.2147C52.3032 64.2348 52.0113 64.2449 51.7698 64.2449C51.7899 64.8488 51.81 65.4727 51.8302 66.1169C51.8503 66.7408 51.8704 67.3548 51.8905 67.9586C51.9107 68.5625 51.9207 69.1462 51.9207 69.7098C51.9207 70.2532 51.9107 70.7464 51.8905 71.1892C51.8905 71.4911 51.8905 71.8434 51.8905 72.246C51.8905 72.6284 51.8603 73.0008 51.8 73.3631C51.7597 73.7254 51.6893 74.0475 51.5886 74.3293C51.488 74.5909 51.337 74.762 51.1357 74.8425C50.5117 75.1042 49.9381 75.1746 49.4147 75.0539C48.9115 74.9532 48.5492 74.7419 48.3278 74.4198C48.1668 74.1582 48.046 73.8562 47.9655 73.5141C47.885 73.1517 47.8246 72.7894 47.7843 72.4271C47.7642 72.0447 47.7541 71.6824 47.7541 71.3402C47.7743 70.9779 47.7843 70.6659 47.7843 70.4042C47.8045 69.5588 47.8145 68.6027 47.8145 67.5359C47.8347 66.449 47.8447 65.362 47.8447 64.2751H47.3918C47.1503 64.2751 46.8383 64.2751 46.4559 64.2751C46.0935 64.255 45.7212 64.2248 45.3387 64.1845C44.9764 64.1241 44.6342 64.0537 44.3122 63.9732C43.9901 63.8725 43.7587 63.7316 43.6178 63.5505C43.3963 63.2888 43.2554 63.007 43.1951 62.7051C43.1548 62.4032 43.1749 62.1214 43.2554 61.8597C43.3561 61.5779 43.507 61.3364 43.7083 61.1351C43.9096 60.9137 44.1411 60.7728 44.4028 60.7124C44.7651 60.6117 45.2783 60.5614 45.9426 60.5614C46.6068 60.5413 47.2308 60.5413 47.8145 60.5614C47.7944 60.3601 47.7843 60.1689 47.7843 59.9877C47.7843 59.7865 47.7743 59.5952 47.7541 59.4141C47.734 59.1725 47.724 58.8706 47.724 58.5083C47.724 58.1259 47.7441 57.7535 47.7843 57.3912C47.8447 57.0087 47.9353 56.6565 48.0561 56.3344C48.1768 55.9923 48.3479 55.7306 48.5693 55.5494C48.8713 55.3079 49.1732 55.1771 49.4751 55.1569C49.7972 55.1167 50.089 55.1569 50.3507 55.2777C50.6325 55.3985 50.864 55.5796 51.0451 55.8212C51.2464 56.0426 51.3873 56.2942 51.4678 56.576C51.5282 56.8175 51.5785 57.1094 51.6188 57.4516C51.6591 57.7736 51.6792 58.1158 51.6792 58.4781C51.6993 58.8404 51.7094 59.2027 51.7094 59.5651C51.7094 59.9274 51.7094 60.2595 51.7094 60.5614H52.0113C52.3132 60.5614 52.6655 60.5513 53.0681 60.5312C53.4706 60.5111 53.8631 60.5212 54.2456 60.5614C54.6481 60.6017 55.0104 60.7023 55.3325 60.8633C55.6546 61.0042 55.8961 61.2558 56.0571 61.6181ZM71.5073 61.6181C71.6683 62.0006 71.6784 62.4233 71.5375 62.8862C71.4167 63.3492 71.1852 63.6511 70.843 63.792C70.6619 63.8725 70.4203 63.943 70.1184 64.0034C69.8165 64.0436 69.4844 64.0839 69.122 64.1241C68.7799 64.1644 68.4377 64.1946 68.0955 64.2147C67.7533 64.2348 67.4614 64.2449 67.2199 64.2449C67.24 64.8488 67.2602 65.4727 67.2803 66.1169C67.3004 66.7408 67.3206 67.3548 67.3407 67.9586C67.3608 68.5625 67.3709 69.1462 67.3709 69.7098C67.3709 70.2532 67.3608 70.7464 67.3407 71.1892C67.3407 71.4911 67.3407 71.8434 67.3407 72.246C67.3407 72.6284 67.3105 73.0008 67.2501 73.3631C67.2098 73.7254 67.1394 74.0475 67.0388 74.3293C66.9381 74.5909 66.7871 74.762 66.5859 74.8425C65.9619 75.1042 65.3882 75.1746 64.8649 75.0539C64.3617 74.9532 63.9994 74.7419 63.7779 74.4198C63.6169 74.1582 63.4961 73.8562 63.4156 73.5141C63.3351 73.1517 63.2747 72.7894 63.2345 72.4271C63.2144 72.0447 63.2043 71.6824 63.2043 71.3402C63.2244 70.9779 63.2345 70.6659 63.2345 70.4042C63.2546 69.5588 63.2647 68.6027 63.2647 67.5359C63.2848 66.449 63.2949 65.362 63.2949 64.2751H62.842C62.6004 64.2751 62.2884 64.2751 61.906 64.2751C61.5437 64.255 61.1713 64.2248 60.7889 64.1845C60.4266 64.1241 60.0844 64.0537 59.7623 63.9732C59.4403 63.8725 59.2088 63.7316 59.0679 63.5505C58.8465 63.2888 58.7056 63.007 58.6452 62.7051C58.6049 62.4032 58.6251 62.1214 58.7056 61.8597C58.8062 61.5779 58.9572 61.3364 59.1585 61.1351C59.3598 60.9137 59.5912 60.7728 59.8529 60.7124C60.2152 60.6117 60.7285 60.5614 61.3927 60.5614C62.057 60.5413 62.6809 60.5413 63.2647 60.5614C63.2445 60.3601 63.2345 60.1689 63.2345 59.9877C63.2345 59.7865 63.2244 59.5952 63.2043 59.4141C63.1842 59.1725 63.1741 58.8706 63.1741 58.5083C63.1741 58.1259 63.1942 57.7535 63.2345 57.3912C63.2949 57.0087 63.3854 56.6565 63.5062 56.3344C63.627 55.9923 63.7981 55.7306 64.0195 55.5494C64.3214 55.3079 64.6233 55.1771 64.9253 55.1569C65.2473 55.1167 65.5392 55.1569 65.8009 55.2777C66.0827 55.3985 66.3141 55.5796 66.4953 55.8212C66.6966 56.0426 66.8375 56.2942 66.918 56.576C66.9784 56.8175 67.0287 57.1094 67.0689 57.4516C67.1092 57.7736 67.1293 58.1158 67.1293 58.4781C67.1495 58.8404 67.1595 59.2027 67.1595 59.5651C67.1595 59.9274 67.1595 60.2595 67.1595 60.5614H67.4614C67.7634 60.5614 68.1156 60.5513 68.5182 60.5312C68.9208 60.5111 69.3133 60.5212 69.6957 60.5614C70.0983 60.6017 70.4606 60.7023 70.7826 60.8633C71.1047 61.0042 71.3462 61.2558 71.5073 61.6181ZM76.3383 61.286C77.0026 60.964 77.697 60.7325 78.4216 60.5916C79.1462 60.4507 79.8608 60.4205 80.5653 60.501C81.2899 60.5815 81.9843 60.7728 82.6486 61.0747C83.3329 61.3766 83.9569 61.7993 84.5205 62.3428C84.9835 62.8057 85.386 63.3693 85.7282 64.0336C86.0704 64.6777 86.322 65.3117 86.483 65.9357C86.8252 67.0428 86.8756 68.1599 86.634 69.2871C86.3925 70.4143 85.9798 71.461 85.3961 72.4271C85.1143 72.8699 84.7621 73.2725 84.3394 73.6348C83.9368 73.977 83.504 74.2588 83.0411 74.4802C82.4372 74.762 81.7831 74.9532 81.0786 75.0539C80.3741 75.1746 79.6897 75.2048 79.0255 75.1445C77.8178 75.0841 76.751 74.7821 75.825 74.2387C74.9193 73.6952 74.1846 73.0008 73.621 72.1554C73.0775 71.31 72.7152 70.3539 72.534 69.2871C72.373 68.2001 72.4435 67.0931 72.7454 65.9659C73.0675 64.7582 73.5304 63.782 74.1343 63.0372C74.7582 62.2723 75.4929 61.6886 76.3383 61.286ZM77.2441 65.3318C76.9422 65.6136 76.7107 65.9659 76.5497 66.3886C76.3886 66.8113 76.288 67.2541 76.2477 67.7171C76.2075 68.1599 76.2377 68.6128 76.3383 69.0757C76.4591 69.5186 76.6402 69.9211 76.8818 70.2834C77.0831 70.5854 77.4454 70.837 77.9687 71.0383C78.4921 71.2395 79.0355 71.3603 79.5991 71.4006C80.2432 71.4408 80.8068 71.2697 81.2899 70.8873C81.773 70.4847 82.1353 69.9916 82.3768 69.4079C82.6385 68.8241 82.7593 68.1901 82.7392 67.5057C82.719 66.8213 82.5379 66.1974 82.1957 65.6338C81.9542 65.2312 81.612 64.9393 81.1691 64.7582C80.7464 64.5569 80.2936 64.4563 79.8105 64.4563C79.3475 64.4361 78.8846 64.5066 78.4216 64.6676C77.9587 64.8085 77.5662 65.0299 77.2441 65.3318Z" fill="#00A7B1"/>
<defs>
<filter id="filter0_d" x="33.1287" y="14.1875" width="35.5824" height="35.582" filterUnits="userSpaceOnUse" color-interpolation-filters="sRGB">
<feFlood flood-opacity="0" result="BackgroundImageFix"/>
<feColorMatrix in="SourceAlpha" type="matrix" values="0 0 0 0 0 0 0 0 0 0 0 0 0 0 0 0 0 0 127 0" result="hardAlpha"/>
<feOffset dy="0.450405"/>
<feGaussianBlur stdDeviation="0.225202"/>
<feComposite in2="hardAlpha" operator="out"/>
<feColorMatrix type="matrix" values="0 0 0 0 0 0 0 0 0 0 0 0 0 0 0 0 0 0 0.25 0"/>
<feBlend mode="normal" in2="BackgroundImageFix" result="effect1_dropShadow"/>
<feBlend mode="normal" in="SourceGraphic" in2="effect1_dropShadow" result="shape"/>
</filter>
<filter id="filter1_d" x="20.5174" y="1.57617" width="33.2011" height="34.0058" filterUnits="userSpaceOnUse" color-interpolation-filters="sRGB">
<feFlood flood-opacity="0" result="BackgroundImageFix"/>
<feColorMatrix in="SourceAlpha" type="matrix" values="0 0 0 0 0 0 0 0 0 0 0 0 0 0 0 0 0 0 127 0" result="hardAlpha"/>
<feOffset dy="0.450405"/>
<feGaussianBlur stdDeviation="0.225202"/>
<feComposite in2="hardAlpha" operator="out"/>
<feColorMatrix type="matrix" values="0 0 0 0 0 0 0 0 0 0 0 0 0 0 0 0 0 0 0.25 0"/>
<feBlend mode="normal" in2="BackgroundImageFix" result="effect1_dropShadow"/>
<feBlend mode="normal" in="SourceGraphic" in2="effect1_dropShadow" result="shape"/>
</filter>
</defs>
</svg>
