<svg width="178" height="71" viewBox="0 0 178 71" fill="none" xmlns="http://www.w3.org/2000/svg">
<g filter="url(#filter0_d_38:6071)">
<path d="M61.4088 54.3895C65.5654 50.685 67.919 45.7472 67.919 40.623C67.919 35.1774 65.3696 30.0844 60.7405 26.2815C56.2351 22.5816 50.2716 20.5437 43.9477 20.5437C37.6238 20.5437 31.6603 22.5816 27.1556 26.2818C22.5264 30.0844 19.9771 35.1774 19.9771 40.623C19.9771 46.0687 22.5264 51.1617 27.1556 54.9646C31.6603 58.6648 37.6238 60.7025 43.9477 60.7025C44.7903 60.7025 45.6381 60.6653 46.4789 60.5914L47.9152 61.8364C52.8635 66.1242 59.1916 68.4847 65.7391 68.4849H67.9183V63.8465L67.2801 63.2084C64.7624 60.6833 62.7672 57.6865 61.4088 54.3895ZM50.7696 58.5426L47.8876 56.0446L46.9266 56.1624C45.9382 56.2833 44.9434 56.3439 43.9477 56.344C33.1337 56.344 24.3353 49.2916 24.3353 40.623C24.3353 31.9545 33.1337 24.902 43.9477 24.902C54.7617 24.902 63.56 31.9544 63.56 40.623C63.56 44.9418 61.4054 48.9738 57.493 51.9761L56.2379 52.9392L56.817 54.5783C58.0038 57.926 59.7482 61.0488 61.9764 63.8148C57.8269 63.1221 53.9489 61.2977 50.7696 58.5426Z" fill="#00A7B1"/>
</g>
<g filter="url(#filter1_d_38:6071)">
<path d="M8.56424 44.1709C10.6041 41.5888 12.2057 38.6889 13.305 35.5874L13.8797 33.9564L12.6258 32.994C8.93646 30.163 6.90468 26.3634 6.90468 22.2951C6.90468 14.12 15.2139 7.46913 25.4274 7.46913C32.9411 7.46913 39.424 11.0688 42.3263 16.2266C42.8652 16.2004 43.4065 16.1857 43.9502 16.1857C45.0422 16.1857 46.1243 16.2387 47.1963 16.3447C46.0747 13.4389 44.1268 10.7863 41.4488 8.58676C37.1502 5.05559 31.4609 3.11084 25.4274 3.11084C19.3939 3.11084 13.7047 5.05559 9.4058 8.58676C4.9824 12.2204 2.54639 17.0887 2.54639 22.2951C2.54639 27.1709 4.77348 31.869 8.70929 35.4031C7.42487 38.494 5.5481 41.3039 3.18474 43.6742L2.54639 44.3124V48.8729H4.72553C8.7552 48.8724 12.7294 47.934 16.3337 46.132C15.9385 44.634 15.7069 43.0976 15.6431 41.5496C13.4554 42.8318 11.0593 43.719 8.56424 44.1709Z" fill="#00A7B1"/>
</g>
<path d="M84.7155 46.2746C83.3118 46.2746 82.0912 46.0305 81.0536 45.5422C80.0364 45.054 79.1921 44.403 78.5208 43.5892C77.8494 42.7551 77.3409 41.8396 76.995 40.8428C76.6695 39.8459 76.5067 38.8491 76.5067 37.8522V37.3029C76.5067 36.2654 76.6695 35.2482 76.995 34.2514C77.3409 33.2545 77.8494 32.3594 78.5208 31.566C79.2125 30.7522 80.0669 30.1012 81.0841 29.6129C82.1013 29.1247 83.2915 28.8806 84.6545 28.8806C86.0175 28.8806 87.2382 29.1349 88.3164 29.6435C89.415 30.1521 90.2898 30.8743 90.9408 31.8101C91.6121 32.7256 91.9885 33.814 92.0699 35.0753H89.2624C89.12 34.0581 88.6521 33.2138 87.8587 32.5425C87.0653 31.8508 85.9972 31.5049 84.6545 31.5049C83.4949 31.5049 82.5286 31.7694 81.7555 32.2983C80.9824 32.8273 80.4026 33.5495 80.0161 34.465C79.6295 35.3804 79.4363 36.418 79.4363 37.5776C79.4363 38.6965 79.6295 39.7239 80.0161 40.6597C80.4026 41.5752 80.9824 42.3076 81.7555 42.8568C82.5489 43.3858 83.5356 43.6503 84.7155 43.6503C86.0786 43.6503 87.1771 43.3044 88.0112 42.6127C88.8454 41.9007 89.3234 41.0259 89.4455 39.9883H92.253C92.1919 41.27 91.8156 42.3788 91.1239 43.3146C90.4525 44.2504 89.5574 44.9828 88.4385 45.5117C87.3399 46.0203 86.0989 46.2746 84.7155 46.2746ZM96.2336 45.7253V23.4487H99.1631V32.2983C99.6107 31.2201 100.252 30.3962 101.086 29.8266C101.94 29.2366 103.028 28.9416 104.351 28.9416H104.473C106.426 28.9416 107.901 29.5926 108.898 30.8946C109.895 32.1763 110.393 34.0174 110.393 36.418V45.7253H107.463V35.8077C107.463 34.4853 107.087 33.4579 106.334 32.7256C105.602 31.9932 104.646 31.627 103.466 31.627C102.164 31.627 101.116 32.0644 100.323 32.9392C99.5497 33.7936 99.1631 34.9227 99.1631 36.3264V45.7253H96.2336ZM120.269 46.1526C118.418 46.1526 116.964 45.6948 115.906 44.7793C114.868 43.8435 114.349 42.5313 114.349 40.8428C114.349 39.1136 114.929 37.8115 116.089 36.9368C117.248 36.0416 118.886 35.5941 121.002 35.5941H125.121V35.1974C125.121 32.9392 123.982 31.8101 121.704 31.8101C120.768 31.8101 119.791 31.8304 118.774 31.8711C117.757 31.9118 116.913 31.9525 116.241 31.9932V29.4298C116.892 29.3688 117.615 29.3281 118.408 29.3078C119.222 29.2671 119.995 29.2467 120.727 29.2467C123.229 29.2467 125.05 29.7045 126.19 30.62C127.349 31.5354 127.929 33.1324 127.929 35.411V45.7253H125.61V42.4907C124.877 44.9319 123.097 46.1526 120.269 46.1526ZM120.88 43.8334C121.571 43.8334 122.233 43.7113 122.863 43.4672C123.494 43.2027 124.013 42.7755 124.42 42.1855C124.847 41.5752 125.081 40.7411 125.121 39.6832V37.7912H120.88C119.7 37.7912 118.794 38.076 118.164 38.6456C117.533 39.2153 117.218 39.9477 117.218 40.8428C117.218 41.7379 117.533 42.4601 118.164 43.0094C118.794 43.5587 119.7 43.8334 120.88 43.8334ZM139.653 45.9084C138.432 45.9084 137.374 45.7355 136.479 45.3897C135.605 45.0438 134.923 44.4538 134.435 43.6197C133.967 42.7653 133.733 41.6159 133.733 40.1714V31.627H130.925V29.4298H133.733V24.4863H136.54V29.4298H142.155V31.627H136.54V40.5376C136.54 41.4124 136.774 42.0939 137.242 42.5822C137.73 43.0501 138.412 43.2841 139.287 43.2841H142.155V45.9084H139.653ZM152.646 45.9084C151.425 45.9084 150.368 45.7355 149.472 45.3897C148.598 45.0438 147.916 44.4538 147.428 43.6197C146.96 42.7653 146.726 41.6159 146.726 40.1714V31.627H143.919V29.4298H146.726V24.4863H149.533V29.4298H155.148V31.627H149.533V40.5376C149.533 41.4124 149.767 42.0939 150.235 42.5822C150.724 43.0501 151.405 43.2841 152.28 43.2841H155.148V45.9084H152.646ZM166.68 46.2746C165.256 46.2746 164.004 46.0305 162.926 45.5422C161.848 45.054 160.932 44.4132 160.18 43.6197C159.447 42.806 158.888 41.9007 158.501 40.9038C158.135 39.907 157.952 38.8898 157.952 37.8522V37.3029C157.952 36.2654 158.145 35.2482 158.532 34.2514C158.918 33.2342 159.488 32.3289 160.241 31.5354C160.993 30.7217 161.909 30.0809 162.987 29.6129C164.065 29.1247 165.296 28.8806 166.68 28.8806C168.063 28.8806 169.294 29.1247 170.372 29.6129C171.45 30.0809 172.366 30.7217 173.118 31.5354C173.871 32.3289 174.441 33.2342 174.827 34.2514C175.214 35.2482 175.407 36.2654 175.407 37.3029V37.8522C175.407 38.8898 175.214 39.907 174.827 40.9038C174.461 41.9007 173.902 42.806 173.149 43.6197C172.417 44.4132 171.511 45.054 170.433 45.5422C169.355 46.0305 168.104 46.2746 166.68 46.2746ZM166.68 43.6503C167.9 43.6503 168.938 43.3858 169.792 42.8568C170.667 42.3076 171.328 41.5752 171.776 40.6597C172.244 39.7442 172.478 38.7169 172.478 37.5776C172.478 36.418 172.244 35.3804 171.776 34.465C171.308 33.5495 170.637 32.8273 169.762 32.2983C168.907 31.7694 167.88 31.5049 166.68 31.5049C165.5 31.5049 164.472 31.7694 163.597 32.2983C162.723 32.8273 162.051 33.5495 161.583 34.465C161.116 35.3804 160.882 36.418 160.882 37.5776C160.882 38.7169 161.105 39.7442 161.553 40.6597C162.021 41.5752 162.682 42.3076 163.536 42.8568C164.411 43.3858 165.459 43.6503 166.68 43.6503Z" fill="#00A7B1"/>
<defs>
<filter id="filter0_d_38:6071" x="19.3544" y="20.5437" width="49.1871" height="49.1864" filterUnits="userSpaceOnUse" color-interpolation-filters="sRGB">
<feFlood flood-opacity="0" result="BackgroundImageFix"/>
<feColorMatrix in="SourceAlpha" type="matrix" values="0 0 0 0 0 0 0 0 0 0 0 0 0 0 0 0 0 0 127 0" result="hardAlpha"/>
<feOffset dy="0.622613"/>
<feGaussianBlur stdDeviation="0.311307"/>
<feComposite in2="hardAlpha" operator="out"/>
<feColorMatrix type="matrix" values="0 0 0 0 0 0 0 0 0 0 0 0 0 0 0 0 0 0 0.25 0"/>
<feBlend mode="normal" in2="BackgroundImageFix" result="effect1_dropShadow_38:6071"/>
<feBlend mode="normal" in="SourceGraphic" in2="effect1_dropShadow_38:6071" result="shape"/>
</filter>
<filter id="filter1_d_38:6071" x="1.92377" y="3.11084" width="45.8951" height="47.0074" filterUnits="userSpaceOnUse" color-interpolation-filters="sRGB">
<feFlood flood-opacity="0" result="BackgroundImageFix"/>
<feColorMatrix in="SourceAlpha" type="matrix" values="0 0 0 0 0 0 0 0 0 0 0 0 0 0 0 0 0 0 127 0" result="hardAlpha"/>
<feOffset dy="0.622613"/>
<feGaussianBlur stdDeviation="0.311307"/>
<feComposite in2="hardAlpha" operator="out"/>
<feColorMatrix type="matrix" values="0 0 0 0 0 0 0 0 0 0 0 0 0 0 0 0 0 0 0.25 0"/>
<feBlend mode="normal" in2="BackgroundImageFix" result="effect1_dropShadow_38:6071"/>
<feBlend mode="normal" in="SourceGraphic" in2="effect1_dropShadow_38:6071" result="shape"/>
</filter>
</defs>
</svg>
