<svg width="588" height="438" viewBox="0 0 588 438" fill="none" xmlns="http://www.w3.org/2000/svg">
<path d="M587.733 384.847H0V385.141H587.733V384.847Z" fill="#EBEBEB"/>
<path d="M377.935 401.233H339.004V401.527H377.935V401.233Z" fill="#EBEBEB"/>
<path d="M488.724 398.048H478.509V398.342H488.724V398.048Z" fill="#EBEBEB"/>
<path d="M466.178 392.852H385.165V393.146H466.178V392.852Z" fill="#EBEBEB"/>
<path d="M264.644 399.787H229.028V400.081H264.644V399.787Z" fill="#EBEBEB"/>
<path d="M218.566 399.787H195.974V400.081H218.566V399.787Z" fill="#EBEBEB"/>
<path d="M116.724 394.827H61.665V395.121H116.724V394.827Z" fill="#EBEBEB"/>
<path d="M278.585 332.422H51.6147C49.8366 332.418 48.1325 331.71 46.8763 330.452C45.6201 329.193 44.9145 327.488 44.9146 325.71V6.65313C44.93 4.88526 45.6424 3.19489 46.8969 1.94918C48.1514 0.703467 49.8468 0.00302845 51.6147 0H278.585C280.365 0 282.073 0.707146 283.331 1.96587C284.59 3.2246 285.297 4.9318 285.297 6.71191V325.71C285.297 327.49 284.59 329.197 283.331 330.456C282.073 331.714 280.365 332.422 278.585 332.422ZM51.6147 0.235094C49.9146 0.238208 48.2851 0.915764 47.0841 2.11904C45.883 3.32232 45.2084 4.953 45.2084 6.65313V325.71C45.2084 327.41 45.883 329.04 47.0841 330.244C48.2851 331.447 49.9146 332.125 51.6147 332.128H278.585C280.287 332.125 281.917 331.447 283.12 330.244C284.323 329.042 285 327.411 285.003 325.71V6.65313C285 4.95192 284.323 3.32127 283.12 2.11833C281.917 0.915382 280.287 0.238201 278.585 0.235094H51.6147Z" fill="#EBEBEB"/>
<path d="M532.85 332.422H305.868C304.089 332.418 302.383 331.71 301.125 330.452C299.867 329.194 299.159 327.489 299.156 325.71V6.65313C299.174 4.88419 299.889 3.19383 301.146 1.94844C302.402 0.703056 304.099 0.00299543 305.868 0H532.85C534.616 0.0061177 536.308 0.707923 537.56 1.9533C538.812 3.19868 539.523 4.88729 539.538 6.65313V325.71C539.538 327.486 538.834 329.189 537.581 330.447C536.327 331.705 534.626 332.415 532.85 332.422ZM305.868 0.235094C304.166 0.238201 302.536 0.915382 301.333 2.11833C300.13 3.32127 299.453 4.95192 299.45 6.65313V325.71C299.453 327.411 300.13 329.042 301.333 330.244C302.536 331.447 304.166 332.125 305.868 332.128H532.85C534.551 332.125 536.182 331.447 537.385 330.244C538.588 329.042 539.265 327.411 539.268 325.71V6.65313C539.265 4.95192 538.588 3.32127 537.385 2.11833C536.182 0.915382 534.551 0.238201 532.85 0.235094H305.868Z" fill="#EBEBEB"/>
<path d="M67.4013 211.29L267.571 211.29V27.0005L67.4013 27.0005L67.4013 211.29Z" fill="#E6E6E6"/>
<path d="M62.6407 211.29L265.502 211.29V27.0005L62.6407 27.0005L62.6407 211.29Z" fill="#F5F5F5"/>
<path d="M256.98 202.074V36.2161L71.1742 36.2161V202.074H256.98Z" fill="#FAFAFA"/>
<path d="M234.023 202.062L171.535 36.2161H145.229L207.716 202.062H234.023Z" fill="white"/>
<path d="M200.252 202.062L137.777 36.2161H119.663L182.139 202.062H200.252Z" fill="white"/>
<path d="M144.253 202.074V36.2161H134.073V202.074H144.253Z" fill="#E6E6E6"/>
<path d="M200.899 202.062V36.2043H190.719V202.062H200.899Z" fill="#E6E6E6"/>
<path d="M142.419 207.904V29.3513H129.56V207.904H142.419Z" fill="#F5F5F5"/>
<path d="M199.065 207.916V29.3632H186.205V207.916H199.065Z" fill="#F5F5F5"/>
<path d="M72.0796 202.074L72.0796 36.2161H71.1745L71.1745 202.074H72.0796Z" fill="#E6E6E6"/>
<path d="M470.997 384.835V256.451H88.1598V384.835H470.997Z" fill="#F0F0F0"/>
<path d="M455.434 308.36V266.936C455.434 265.171 454.002 263.739 452.236 263.739H106.943C105.178 263.739 103.746 265.171 103.746 266.936V308.36C103.746 310.126 105.178 311.557 106.943 311.557H452.236C454.002 311.557 455.434 310.126 455.434 308.36Z" fill="#F5F5F5"/>
<path d="M455.422 373.716V320.138C455.422 318.372 453.99 316.941 452.225 316.941H106.932C105.166 316.941 103.734 318.372 103.734 320.138V373.716C103.734 375.481 105.166 376.913 106.932 376.913H452.225C453.99 376.913 455.422 375.481 455.422 373.716Z" fill="#F5F5F5"/>
<path d="M385.023 262.94H174.133C174.133 264.589 174.788 266.171 175.955 267.337C177.121 268.503 178.702 269.158 180.352 269.158H378.805C380.454 269.158 382.036 268.503 383.202 267.337C384.368 266.171 385.023 264.589 385.023 262.94Z" fill="#F0F0F0"/>
<path d="M385.023 316.2H174.133C174.133 317.017 174.294 317.825 174.607 318.58C174.919 319.334 175.377 320.02 175.955 320.597C176.532 321.175 177.217 321.633 177.972 321.945C178.726 322.258 179.535 322.418 180.352 322.418H378.805C379.622 322.418 380.43 322.258 381.185 321.945C381.939 321.633 382.625 321.175 383.202 320.597C383.78 320.02 384.238 319.334 384.55 318.58C384.863 317.825 385.023 317.017 385.023 316.2Z" fill="#F0F0F0"/>
<path d="M499.572 384.836V256.451H470.997V384.836H499.572Z" fill="#E6E6E6"/>
<path d="M88.1597 248.54V256.451H470.997V248.54L88.1597 248.54Z" fill="#FAFAFA"/>
<path d="M437.344 237.08C437.344 240.119 438.551 243.034 440.701 245.184C442.85 247.333 445.765 248.54 448.805 248.54C451.844 248.54 454.759 247.333 456.909 245.184C459.058 243.034 460.265 240.119 460.265 237.08H437.344Z" fill="#F5F5F5"/>
<path d="M406.793 237.08C406.793 240.119 408.001 243.034 410.15 245.184C412.3 247.333 415.215 248.54 418.254 248.54C421.294 248.54 424.209 247.333 426.358 245.184C428.508 243.034 429.715 240.119 429.715 237.08H406.793Z" fill="#F5F5F5"/>
<path d="M92.2739 244.673C92.2739 246.801 101.807 248.54 113.562 248.54C125.316 248.54 134.849 246.801 134.849 244.673H92.2739Z" fill="#F5F5F5"/>
<path d="M92.2739 242.64C92.2739 244.779 101.807 246.519 113.562 246.519C125.316 246.519 134.849 244.779 134.849 242.64H92.2739Z" fill="#F5F5F5"/>
<path d="M470.997 248.54V256.451H499.573V248.54H470.997Z" fill="#E0E0E0"/>
<path d="M487.113 24.6377H417.243V115.677H487.113V24.6377Z" fill="#EBEBEB"/>
<path d="M483.857 24.6377H413.987V115.677H483.857V24.6377Z" fill="#F5F5F5"/>
<path d="M474.476 36.8744H423.379V103.453H474.476V36.8744Z" fill="white"/>
<path d="M327.861 142.76V212.63H438.261V142.76H327.861Z" fill="#EBEBEB"/>
<path d="M324.499 142.76V212.63H434.899V142.76H324.499Z" fill="#F5F5F5"/>
<path d="M336.735 152.14V203.238H422.662V152.14H336.735Z" fill="white"/>
<path d="M525.633 134.403H468.822V190.378H525.633V134.403Z" fill="#EBEBEB"/>
<path d="M522.377 134.403H465.566V190.378H522.377V134.403Z" fill="#F5F5F5"/>
<path d="M512.996 146.639H474.958V178.154H512.996V146.639Z" fill="white"/>
<path d="M399.176 67.46H342.366V123.436H399.176V67.46Z" fill="#EBEBEB"/>
<path d="M395.932 67.46H339.122V123.436H395.932V67.46Z" fill="#F5F5F5"/>
<path d="M386.552 79.6965H348.514V111.211H386.552V79.6965Z" fill="white"/>
<path d="M293.867 437.931C419.738 437.931 521.777 431.974 521.777 424.625C521.777 417.276 419.738 411.319 293.867 411.319C167.995 411.319 65.9556 417.276 65.9556 424.625C65.9556 431.974 167.995 437.931 293.867 437.931Z" fill="#F5F5F5"/>
<path d="M372.375 85.9031H371.153V93.6376H372.375V85.9031Z" fill="#00A7B1"/>
<path d="M372.375 79.6143H371.2C371.194 75.1094 369.401 70.7909 366.214 67.6065C363.027 64.4221 358.708 62.6319 354.203 62.6288V61.4534C359.016 61.4688 363.627 63.3868 367.031 66.789C370.436 70.1911 372.357 74.8014 372.375 79.6143Z" fill="#00A7B1"/>
<path d="M354.156 65.6851H191.918C184.219 65.6851 177.977 71.9267 177.977 79.6261V410.52C177.977 418.219 184.219 424.461 191.918 424.461H354.156C361.855 424.461 368.097 418.219 368.097 410.52V79.6261C368.097 71.9267 361.855 65.6851 354.156 65.6851Z" fill="#00A7B1"/>
<path opacity="0.95" d="M361.773 410.52V79.6143C361.773 74.8817 357.936 71.0452 353.204 71.0452L190.966 71.0452C186.233 71.0452 182.397 74.8817 182.397 79.6143L182.397 410.52C182.397 415.252 186.233 419.089 190.966 419.089H353.204C357.936 419.089 361.773 415.252 361.773 410.52Z" fill="white"/>
<path d="M272.097 405.806C277.452 405.806 281.794 401.464 281.794 396.108C281.794 390.753 277.452 386.411 272.097 386.411C266.741 386.411 262.399 390.753 262.399 396.108C262.399 401.464 266.741 405.806 272.097 405.806Z" fill="#00A7B1"/>
<path d="M264.679 70.0696C264.679 72.1926 265.523 74.2287 267.024 75.7299C268.525 77.2311 270.561 78.0745 272.684 78.0745C274.807 78.0745 276.843 77.2311 278.344 75.7299C279.846 74.2287 280.689 72.1926 280.689 70.0696H264.679Z" fill="#00A7B1"/>
<path opacity="0.7" d="M325.028 104.805H220.411C216.144 104.817 212.055 106.518 209.038 109.535C206.021 112.552 204.32 116.641 204.308 120.908V131.652C204.32 135.919 206.021 140.008 209.038 143.026C212.055 146.043 216.144 147.744 220.411 147.756H325.028L341.132 157.301V120.861C341.104 116.603 339.397 112.528 336.381 109.522C333.366 106.515 329.286 104.82 325.028 104.805Z" fill="#00A7B1"/>
<path d="M322.112 120.191H223.268V122.871H322.112V120.191Z" fill="white"/>
<path d="M322.112 129.689H242.287V132.369H322.112V129.689Z" fill="white"/>
<path opacity="0.15" d="M220.352 176.32H324.969C329.236 176.332 333.325 178.033 336.342 181.05C339.36 184.068 341.06 188.156 341.073 192.424V203.156C341.06 207.423 339.36 211.512 336.342 214.529C333.325 217.547 329.236 219.247 324.969 219.26H220.352L204.249 228.804V192.365C204.273 188.107 205.98 184.031 208.996 181.026C212.013 178.021 216.094 176.329 220.352 176.32Z" fill="#00A7B1"/>
<path opacity="0.5" d="M322.112 191.695H223.268V194.375H322.112V191.695Z" fill="#00A7B1"/>
<path opacity="0.5" d="M269.111 201.204H223.268V203.885H269.111V201.204Z" fill="#00A7B1"/>
<path opacity="0.5" d="M294.912 201.204H276.27V203.885H294.912V201.204Z" fill="#00A7B1"/>
<path opacity="0.7" d="M325.028 247.823H220.411C216.144 247.836 212.055 249.536 209.038 252.554C206.021 255.571 204.32 259.66 204.308 263.927V274.659C204.317 278.927 206.017 283.018 209.035 286.036C212.053 289.054 216.143 290.754 220.411 290.763H325.028L341.132 300.308V263.868C341.101 259.612 339.392 255.54 336.377 252.536C333.362 249.532 329.284 247.839 325.028 247.823Z" fill="#00A7B1"/>
<path d="M322.112 263.198H223.268V265.879H322.112V263.198Z" fill="white"/>
<path d="M322.112 272.708H242.287V275.388H322.112V272.708Z" fill="white"/>
<path opacity="0.15" d="M220.352 319.327H261.059C265.325 319.342 269.412 321.044 272.429 324.061C275.446 327.077 277.147 331.165 277.163 335.431V346.175C277.147 350.441 275.446 354.528 272.429 357.545C269.412 360.561 265.325 362.263 261.059 362.278H220.352L204.249 371.811V335.431C204.261 331.164 205.962 327.075 208.979 324.057C211.996 321.04 216.085 319.339 220.352 319.327Z" fill="#00A7B1"/>
<path opacity="0.5" d="M228.51 340.803C228.51 341.733 228.234 342.642 227.718 343.415C227.201 344.188 226.467 344.791 225.608 345.147C224.748 345.503 223.803 345.596 222.891 345.414C221.979 345.233 221.141 344.785 220.484 344.127C219.826 343.47 219.378 342.632 219.197 341.72C219.015 340.808 219.108 339.863 219.464 339.003C219.82 338.144 220.423 337.41 221.196 336.893C221.969 336.377 222.878 336.101 223.808 336.101C225.051 336.116 226.238 336.616 227.116 337.495C227.995 338.373 228.495 339.56 228.51 340.803Z" fill="#00A7B1"/>
<path opacity="0.5" d="M238.02 341.755C240.649 341.755 242.781 339.623 242.781 336.994C242.781 334.365 240.649 332.234 238.02 332.234C235.391 332.234 233.259 334.365 233.259 336.994C233.259 339.623 235.391 341.755 238.02 341.755Z" fill="#00A7B1"/>
<path opacity="0.5" d="M257.039 346.504C257.039 347.434 256.763 348.343 256.247 349.116C255.73 349.889 254.996 350.492 254.136 350.848C253.277 351.203 252.332 351.297 251.42 351.115C250.508 350.934 249.67 350.486 249.012 349.828C248.355 349.171 247.907 348.333 247.726 347.421C247.544 346.509 247.637 345.563 247.993 344.704C248.349 343.845 248.952 343.111 249.725 342.594C250.498 342.078 251.407 341.802 252.337 341.802C253.584 341.802 254.78 342.297 255.662 343.179C256.544 344.061 257.039 345.257 257.039 346.504Z" fill="#00A7B1"/>
<path d="M404.748 329.365C406.041 331.94 407.193 334.526 408.404 337.112C409.614 339.698 410.754 342.331 411.836 344.964C412.917 347.597 414.046 350.242 415.08 352.933C416.115 355.625 417.161 358.317 418.113 361.162L413.905 357.2C416.358 358.038 418.929 358.483 421.522 358.517C424.529 358.598 427.538 358.461 430.526 358.105C433.629 357.776 436.756 357.259 439.93 356.671C443.103 356.084 446.277 355.355 449.333 354.638L452.119 361.409C449.061 363.09 445.896 364.57 442.645 365.84C439.389 367.147 436.056 368.254 432.665 369.155C429.14 370.105 425.536 370.734 421.898 371.036C417.839 371.43 413.743 371.095 409.802 370.048L407.04 369.284L405.535 366.052C403.279 361.103 400.834 356.025 398.483 350.959C397.307 348.42 396.073 345.869 394.897 343.318C393.722 340.767 392.547 338.205 391.371 335.642L404.748 329.365Z" fill="#FFC3BD"/>
<path d="M445.501 356.707L450.121 352.193L457.455 360.127C457.455 360.127 454.799 364.77 448.193 362.067L445.501 356.707Z" fill="#FFC3BD"/>
<path d="M457.092 349.207L461.135 355.802L457.468 360.127L450.133 352.193L457.092 349.207Z" fill="#FFC3BD"/>
<path d="M383.989 318.798C393.393 315.166 400.681 320.585 412.565 335.584L398.647 349.889C398.647 349.889 365.652 325.827 383.989 318.798Z" fill="#263238"/>
<path opacity="0.2" d="M401.645 334.314C397.201 331.434 393.334 332.245 390.066 334.925C391.301 339.498 394.463 344.74 397.507 349.031C398.224 349.595 398.683 349.901 398.683 349.901L406.441 341.919C406.238 340.38 405.704 338.904 404.877 337.591C404.049 336.278 402.946 335.16 401.645 334.314Z" fill="black"/>
<path d="M455.61 418.513L466.871 417.208L465.931 394.122L454.682 395.415L455.61 418.513Z" fill="#FFC3BD"/>
<path d="M466.965 412.353L454.282 412.53C454.076 412.54 453.881 412.624 453.732 412.766C453.583 412.909 453.491 413.1 453.471 413.305L452.037 423.285C451.995 423.521 452.004 423.763 452.063 423.995C452.123 424.227 452.231 424.443 452.382 424.629C452.532 424.815 452.721 424.967 452.935 425.074C453.15 425.181 453.385 425.24 453.624 425.248C457.562 425.119 459.372 424.825 464.344 424.743C467.412 424.743 476.651 424.919 480.883 424.86C485.115 424.801 485.397 420.158 483.645 419.747C475.781 417.984 471.256 415.456 468.635 413.011C468.187 412.58 467.587 412.343 466.965 412.353Z" fill="#263238"/>
<path d="M469.657 409.414C469.835 409.347 470.026 409.324 470.214 409.346C470.402 409.369 470.582 409.437 470.739 409.544C470.863 409.605 470.97 409.696 471.05 409.809C471.13 409.922 471.18 410.053 471.197 410.19C471.338 411.366 468.846 413.482 468.506 413.717C468.471 413.742 468.43 413.755 468.388 413.755C468.346 413.755 468.305 413.742 468.27 413.717C468.231 413.696 468.198 413.663 468.177 413.623C468.156 413.583 468.148 413.538 468.153 413.493C468.235 412.224 468.529 409.967 469.528 409.462L469.657 409.414ZM468.635 413.011C469.622 412.153 470.845 410.86 470.762 410.214C470.762 410.143 470.762 410.037 470.563 409.943C470.447 409.859 470.31 409.808 470.167 409.795C470.024 409.783 469.88 409.81 469.752 409.873C469.211 410.167 468.799 411.33 468.635 413.011Z" fill="#00A7B1"/>
<path d="M469.54 412.588C469.956 412.369 470.411 412.236 470.88 412.195C471.348 412.155 471.82 412.209 472.267 412.353C472.421 412.45 472.539 412.594 472.605 412.763C472.67 412.932 472.68 413.118 472.631 413.294C472.607 413.459 472.545 413.616 472.449 413.753C472.353 413.89 472.226 414.002 472.079 414.081C470.904 414.728 468.412 413.764 468.306 413.728C468.269 413.712 468.237 413.687 468.21 413.657C468.184 413.626 468.164 413.591 468.153 413.552C468.145 413.514 468.148 413.474 468.16 413.437C468.172 413.4 468.194 413.367 468.223 413.341C468.616 413.016 469.061 412.761 469.54 412.588ZM471.726 413.764L471.856 413.705C471.948 413.652 472.027 413.579 472.088 413.491C472.149 413.404 472.19 413.304 472.208 413.199C472.208 412.917 472.15 412.812 472.055 412.765C471.491 412.4 469.763 412.87 468.835 413.47C469.753 413.835 470.754 413.936 471.726 413.764Z" fill="#00A7B1"/>
<path opacity="0.2" d="M454.682 395.426L465.931 394.122L466.413 406.029L455.105 406.076L454.682 395.426Z" fill="black"/>
<path d="M399.47 382.026C399.47 382.026 428.692 354.849 447.664 354.438C461.511 354.144 471.409 399.94 471.409 399.94L454.952 400.258C454.952 400.258 452.06 384.06 441.305 379.593C425.765 402.914 362.42 449.004 368.426 399.035C377.83 395.497 399.47 382.026 399.47 382.026Z" fill="#00A7B1"/>
<path opacity="0.2" d="M399.47 382.026C399.47 382.026 428.692 354.849 447.664 354.438C461.511 354.144 471.409 399.94 471.409 399.94L454.952 400.258C454.952 400.258 452.06 384.06 441.305 379.593C425.765 402.914 362.42 449.004 368.426 399.035C377.83 395.497 399.47 382.026 399.47 382.026Z" fill="black"/>
<path d="M471.35 402.209L452.002 404.066L452.061 397.013L472.526 394.58L471.35 402.209Z" fill="#263238"/>
<path d="M361.103 400.763C361.103 400.763 348.537 376.219 346.998 336.688C346.645 327.379 355.026 318.598 364.63 318.104C372.693 317.681 381.227 317.575 388.139 317.599C395.051 317.622 400.34 322.207 401.128 328.86C402.867 343.53 403.173 365.805 412.165 392.335L361.103 400.763Z" fill="#263238"/>
<path opacity="0.2" d="M352.887 336.888C359.81 329.071 362.196 331.563 363.231 332.504C372.822 341.19 358.74 368.238 355.919 372.223C353.937 362.121 352.758 351.878 352.393 341.59C352.321 340.007 352.487 338.422 352.887 336.888Z" fill="black"/>
<path d="M373.986 294.607C373.21 301.812 371.306 312.874 366.404 318.01C370.26 321.643 376.537 325.216 385.459 326.709C390.066 324.805 390.678 320.561 388.444 317.611C380.569 316.235 380.663 314.002 383.637 308.983L373.986 294.607Z" fill="#FFC3BD"/>
<path opacity="0.2" d="M377.924 300.472L383.636 308.971C382.879 310.141 382.289 311.411 381.885 312.744C379.087 311.569 376.008 307.29 376.619 304.14C376.832 302.85 377.274 301.608 377.924 300.472Z" fill="black"/>
<path d="M394.627 281.324C399.247 286.226 408.956 286.249 404.783 280.442C400.61 274.636 391.03 277.504 394.627 281.324Z" fill="#263238"/>
<path d="M375.902 280.795C373.328 290.199 371.353 295.465 374.28 301.953C375.169 304.07 376.623 305.9 378.483 307.245C380.343 308.59 382.537 309.397 384.825 309.578C387.113 309.759 389.407 309.306 391.455 308.27C393.503 307.235 395.227 305.655 396.437 303.705C401.139 296.276 404.595 282.229 397.06 275.094C395.499 273.5 393.542 272.35 391.389 271.763C389.237 271.175 386.967 271.172 384.812 271.752C382.658 272.333 380.697 273.476 379.131 275.066C377.565 276.655 376.451 278.632 375.902 280.795Z" fill="#FFC3BD"/>
<path d="M373.798 289.517C374.973 289.305 380.78 287.542 383.613 284.815C386.799 281.747 386.822 278.773 385.964 277.421C385.106 276.07 378.382 273.472 375.244 274.071C370.283 275.024 371.506 283.804 371.576 286.179C371.614 286.883 371.839 287.565 372.23 288.152C372.621 288.739 373.162 289.211 373.798 289.517Z" fill="#FFC3BD"/>
<path opacity="0.7" d="M373.798 289.517C374.973 289.305 380.78 287.542 383.613 284.815C386.799 281.747 386.822 278.773 385.964 277.421C385.106 276.07 378.382 273.472 375.244 274.071C370.283 275.024 371.506 283.804 371.576 286.179C371.614 286.883 371.839 287.565 372.23 288.152C372.621 288.739 373.162 289.211 373.798 289.517Z" fill="#263238"/>
<path d="M368.873 290.164C369.787 292.184 371.428 293.787 373.469 294.654C376.173 295.747 377.712 293.478 377.125 290.716C376.596 288.283 374.55 284.768 371.765 284.839C368.979 284.909 367.768 287.672 368.873 290.164Z" fill="#FFC3BD"/>
<path d="M377.712 276.881C389.702 279.443 398.224 286.191 403.89 282.135C407.898 279.267 405.265 274.036 400.669 270.251C396.743 267.019 391.266 266.02 389.62 263.375C389.428 264.254 389.502 265.171 389.833 266.008C390.164 266.846 390.736 267.566 391.477 268.077C391.477 268.077 380.651 266.407 377.654 263.586C376.937 265.267 379.711 268.512 379.711 268.512C379.711 268.512 376.654 271.415 367.956 268.135C368.473 270.945 370.895 275.423 377.712 276.881Z" fill="#263238"/>
<path d="M401.527 283.087H401.057V282.476C402.092 282.605 403.142 282.391 404.044 281.866C404.946 281.342 405.652 280.536 406.052 279.573C406.502 278.285 406.536 276.888 406.147 275.58C405.759 274.272 404.969 273.119 403.89 272.285C402.851 271.477 401.718 270.798 400.516 270.263C397.73 268.864 394.568 267.277 393.04 262.658L393.616 262.47C395.062 266.842 397.977 268.347 400.798 269.71C402.055 270.271 403.239 270.981 404.325 271.826C405.512 272.736 406.38 273.999 406.802 275.433C407.225 276.868 407.18 278.4 406.675 279.808C406.263 280.82 405.546 281.68 404.623 282.267C403.701 282.855 402.619 283.141 401.527 283.087Z" fill="#263238"/>
<path d="M389.49 289.928C389.232 290.669 389.42 291.433 389.89 291.621C390.36 291.809 390.96 291.363 391.218 290.622C391.477 289.881 391.289 289.117 390.818 288.929C390.348 288.741 389.737 289.164 389.49 289.928Z" fill="#263238"/>
<path d="M398.353 292.609C398.106 293.349 398.283 294.101 398.765 294.289C399.247 294.478 399.834 294.043 400.081 293.29C400.328 292.538 400.163 291.797 399.682 291.598C399.2 291.398 398.612 291.856 398.353 292.609Z" fill="#263238"/>
<path d="M395.097 291.703C395.189 294.336 395.632 296.945 396.414 299.461C394.698 300.167 392.688 298.733 392.688 298.733L395.097 291.703Z" fill="#ED847E"/>
<path d="M387.904 300.519C386.311 299.642 385.129 298.172 384.612 296.429C384.604 296.4 384.601 296.37 384.605 296.34C384.608 296.311 384.618 296.282 384.634 296.257C384.649 296.231 384.67 296.209 384.695 296.192C384.72 296.175 384.747 296.164 384.777 296.158C384.806 296.152 384.837 296.151 384.866 296.156C384.896 296.161 384.924 296.172 384.95 296.189C384.975 296.205 384.997 296.227 385.013 296.252C385.03 296.277 385.042 296.305 385.047 296.335C385.348 297.283 385.859 298.151 386.54 298.875C387.222 299.599 388.057 300.161 388.985 300.519C389.043 300.543 389.089 300.588 389.113 300.646C389.137 300.703 389.138 300.767 389.114 300.825C389.107 300.854 389.093 300.881 389.074 300.903C389.055 300.926 389.031 300.945 389.004 300.957C388.977 300.969 388.948 300.975 388.918 300.975C388.888 300.975 388.859 300.968 388.832 300.954C388.513 300.83 388.203 300.685 387.904 300.519Z" fill="#263238"/>
<path d="M387.081 285.062C387.009 285.023 386.948 284.967 386.904 284.897C386.838 284.796 386.814 284.672 386.838 284.553C386.862 284.434 386.933 284.33 387.034 284.263C387.63 283.859 388.317 283.61 389.033 283.538C389.749 283.467 390.472 283.574 391.136 283.851C391.193 283.877 391.243 283.913 391.286 283.958C391.328 284.003 391.361 284.056 391.383 284.114C391.405 284.172 391.415 284.233 391.413 284.295C391.411 284.357 391.397 284.418 391.371 284.474C391.348 284.528 391.315 284.577 391.272 284.618C391.23 284.659 391.18 284.691 391.125 284.712C391.07 284.732 391.012 284.742 390.953 284.74C390.894 284.737 390.837 284.723 390.784 284.698C390.253 284.492 389.682 284.418 389.117 284.482C388.552 284.545 388.011 284.744 387.539 285.062C387.47 285.102 387.391 285.123 387.31 285.123C387.23 285.123 387.15 285.102 387.081 285.062Z" fill="#263238"/>
<path d="M401.374 290.41C401.302 290.386 401.236 290.344 401.183 290.289C401.13 290.233 401.091 290.166 401.069 290.093C400.918 289.52 400.638 288.99 400.251 288.542C399.864 288.094 399.38 287.74 398.835 287.507C398.719 287.467 398.622 287.383 398.566 287.274C398.509 287.165 398.496 287.038 398.53 286.919C398.544 286.862 398.571 286.809 398.607 286.762C398.643 286.716 398.689 286.678 398.741 286.65C398.793 286.623 398.85 286.606 398.909 286.602C398.968 286.598 399.027 286.606 399.082 286.625C399.774 286.904 400.392 287.34 400.885 287.899C401.379 288.458 401.736 289.125 401.927 289.846C401.947 289.903 401.955 289.964 401.951 290.024C401.947 290.084 401.931 290.143 401.903 290.197C401.876 290.251 401.838 290.299 401.791 290.337C401.745 290.376 401.691 290.405 401.633 290.422C401.547 290.442 401.458 290.438 401.374 290.41Z" fill="#263238"/>
<path d="M494.671 424.002L501.371 414.257L483.328 398.541L476.628 408.286L494.671 424.002Z" fill="#FFC3BD"/>
<path d="M496.74 409.65L488.876 419.441C488.739 419.606 488.663 419.814 488.663 420.029C488.663 420.244 488.739 420.452 488.876 420.617L495 428.234C495.146 428.415 495.33 428.562 495.54 428.662C495.749 428.763 495.979 428.815 496.211 428.815C496.444 428.815 496.673 428.763 496.883 428.662C497.092 428.562 497.277 428.415 497.422 428.234C499.902 425.036 501.56 422.58 504.745 418.607C506.708 416.162 512.879 409.015 515.595 405.677C518.31 402.338 515.207 399.047 513.784 400.175C507.402 405.218 501.724 408.31 498.292 408.78C497.684 408.867 497.131 409.177 496.74 409.65Z" fill="#263238"/>
<path d="M496.222 405.629C496.279 405.448 496.376 405.282 496.507 405.143C496.637 405.005 496.797 404.898 496.975 404.83C497.098 404.766 497.235 404.733 497.374 404.733C497.513 404.733 497.65 404.766 497.774 404.83C498.844 405.453 498.949 408.721 498.949 409.097C498.948 409.141 498.934 409.183 498.909 409.218C498.883 409.254 498.849 409.281 498.808 409.297C498.771 409.32 498.728 409.332 498.685 409.332C498.641 409.332 498.599 409.32 498.561 409.297C497.598 408.474 495.999 406.946 496.21 405.771C496.208 405.723 496.212 405.676 496.222 405.629ZM498.491 408.603C498.397 407.287 498.103 405.547 497.539 405.218C497.484 405.191 497.424 405.177 497.362 405.177C497.301 405.177 497.241 405.191 497.186 405.218C497.051 405.265 496.931 405.346 496.836 405.453C496.741 405.56 496.676 405.69 496.645 405.829C496.563 406.441 497.221 407.463 498.491 408.603Z" fill="#00A7B1"/>
<path d="M498.715 407.628C498.985 406.629 499.503 405.547 500.149 405.277C500.319 405.211 500.506 405.201 500.682 405.25C500.858 405.299 501.013 405.403 501.125 405.547C501.242 405.667 501.33 405.812 501.383 405.97C501.436 406.129 501.452 406.298 501.43 406.464C501.266 407.757 498.985 409.215 498.88 409.273C498.846 409.294 498.807 409.305 498.768 409.305C498.728 409.305 498.69 409.294 498.656 409.273C498.619 409.261 498.587 409.238 498.563 409.206C498.54 409.174 498.527 409.136 498.527 409.097C498.507 408.6 498.571 408.104 498.715 407.628ZM500.948 406.558C500.948 406.558 500.948 406.476 500.948 406.429C500.963 406.324 500.953 406.217 500.918 406.117C500.883 406.017 500.825 405.926 500.749 405.853C500.561 405.641 500.419 405.653 500.314 405.7C499.691 405.935 499.032 407.604 498.95 408.697C499.8 408.181 500.491 407.441 500.948 406.558Z" fill="#00A7B1"/>
<path opacity="0.2" d="M476.628 408.286L483.328 398.541L492.638 406.64L484.95 415.539L476.628 408.286Z" fill="black"/>
<path d="M379.452 397.178C379.452 397.178 430.82 344.987 453.941 367.321C468.341 381.239 489.499 400.41 489.499 400.41L477.239 412.341C477.239 412.341 446.183 395.826 438.096 386.705C395.662 434.146 357.741 437.391 361.15 400.81C367.165 399.203 373.279 397.99 379.452 397.178Z" fill="#00A7B1"/>
<path d="M493.154 400.516L479.683 417.443L473.971 413.611L487.735 395.638L493.154 400.516Z" fill="#263238"/>
<path d="M361.279 333.374L362.29 354.767C362.478 358.294 362.701 361.82 362.972 365.346C363.113 367.074 363.301 368.779 363.489 370.413C363.595 371.235 363.701 372.035 363.83 372.764C363.959 373.492 364.1 374.174 364.194 374.585C364.2 374.648 364.2 374.711 364.194 374.774C364.001 374.424 363.727 374.126 363.395 373.904C363.203 373.765 362.988 373.662 362.76 373.598C362.631 373.598 362.56 373.598 362.619 373.598C363.581 373.746 364.564 373.682 365.499 373.41C368.609 372.634 371.636 371.56 374.538 370.201C377.677 368.826 380.804 367.239 383.942 365.593C387.081 363.948 390.219 362.196 393.263 360.492L397.66 366.369C392.149 371.498 386.162 376.091 379.781 380.087C378.147 381.086 376.454 382.05 374.668 382.955C372.802 383.917 370.864 384.735 368.873 385.4C367.739 385.774 366.58 386.065 365.405 386.27C363.96 386.539 362.485 386.61 361.02 386.481C360.074 386.393 359.142 386.187 358.246 385.87C357.167 385.49 356.152 384.947 355.237 384.26C354.284 383.52 353.461 382.626 352.804 381.615C352.504 381.152 352.237 380.669 352.005 380.169L351.558 379.088C351.145 377.968 350.796 376.826 350.512 375.667C350.253 374.621 350.042 373.645 349.854 372.669C349.466 370.73 349.172 368.837 348.913 366.968C348.372 363.23 347.985 359.54 347.655 355.86C346.997 348.502 346.609 341.226 346.48 333.832L361.279 333.374Z" fill="#FFC3BD"/>
<path d="M357.671 319.585C352.134 320.208 343.847 325.463 343.565 349.889L367.309 348.02C367.309 348.02 378.5 317.199 357.671 319.585Z" fill="#263238"/>
<path d="M413.235 348.114L404.419 348.69C403.899 348.762 403.412 348.989 403.022 349.341C402.632 349.693 402.357 350.154 402.233 350.665L398.107 370.036C398.037 370.247 398.021 370.472 398.06 370.691C398.099 370.909 398.193 371.114 398.332 371.287C398.471 371.46 398.652 371.596 398.857 371.681C399.062 371.767 399.285 371.799 399.506 371.776L408.322 371.2C408.843 371.131 409.331 370.905 409.722 370.553C410.112 370.2 410.386 369.737 410.508 369.225L414.634 349.854C414.704 349.643 414.72 349.418 414.68 349.2C414.641 348.981 414.548 348.776 414.408 348.603C414.269 348.43 414.089 348.294 413.884 348.209C413.679 348.124 413.456 348.091 413.235 348.114Z" fill="#00A7B1"/>
<path d="M393.981 360.033L401.28 357.494L399.482 368.931C399.482 368.931 391.348 370.718 390.678 366.345L391.853 362.455C392.002 361.916 392.27 361.419 392.639 360.999C393.007 360.58 393.466 360.25 393.981 360.033Z" fill="#FFC3BD"/>
<path d="M409.626 358.458L406.464 368.638L399.482 368.931L401.28 357.494L409.626 358.458Z" fill="#FFC3BD"/>
<path d="M156.784 118.722C151.048 105.404 182.327 91.4629 191.166 112.198C206.177 118.722 186.993 146.463 191.331 151.165C195.668 155.867 198.936 150.166 198.936 150.166C198.936 150.166 203.321 161.85 192.142 171.206C182.127 179.611 152 181.891 151.929 165.329C151.835 143.795 164.307 136.178 156.784 118.722Z" fill="#263238"/>
<path d="M185.547 398.318L177.131 403.22L156.925 380.122L167.41 370.659L185.547 398.318Z" fill="#FF8B7B"/>
<path d="M176.167 401.104L184.854 394.439C184.99 394.318 185.165 394.25 185.347 394.25C185.53 394.25 185.705 394.318 185.841 394.439L191.601 400.128C191.742 400.288 191.847 400.475 191.91 400.678C191.974 400.881 191.993 401.095 191.967 401.306C191.942 401.517 191.872 401.72 191.762 401.902C191.652 402.084 191.505 402.241 191.331 402.362C188.274 404.63 186.688 405.582 182.867 408.521C180.516 410.32 175.814 414.269 172.594 416.749C169.373 419.23 166.928 416.373 168.068 415.068C173.217 409.191 174.333 405.665 175.121 402.526C175.299 401.948 175.668 401.446 176.167 401.104Z" fill="#263238"/>
<path d="M174.216 404.583C173.612 405.147 172.84 405.498 172.018 405.583C171.822 405.575 171.631 405.518 171.463 405.417C171.294 405.316 171.154 405.175 171.054 405.007C170.996 404.9 170.966 404.781 170.966 404.66C170.966 404.539 170.996 404.42 171.054 404.313C171.642 403.138 175.826 402.209 176.297 402.103C176.342 402.096 176.388 402.102 176.43 402.121C176.472 402.14 176.507 402.17 176.532 402.209C176.554 402.248 176.566 402.293 176.566 402.338C176.566 402.384 176.554 402.428 176.532 402.468C175.826 403.242 175.051 403.95 174.216 404.583ZM171.724 404.148C171.601 404.233 171.5 404.346 171.43 404.478C171.404 404.518 171.39 404.565 171.39 404.613C171.39 404.661 171.404 404.708 171.43 404.748C171.491 404.861 171.581 404.956 171.69 405.024C171.8 405.093 171.925 405.131 172.053 405.136C172.817 405.136 174.146 404.266 175.65 402.691C174.27 402.958 172.944 403.451 171.724 404.148Z" fill="#00A7B1"/>
<path d="M176.426 402.491H176.332C175.156 402.808 172.135 402.644 171.63 401.715C171.524 401.504 171.489 401.139 171.959 400.704C172.294 400.392 172.736 400.22 173.193 400.222C174.733 400.222 176.379 402.044 176.438 402.127C176.457 402.158 176.468 402.195 176.468 402.232C176.468 402.27 176.457 402.306 176.438 402.338C176.449 402.389 176.445 402.442 176.426 402.491ZM172.382 400.975L172.277 401.069C171.971 401.351 172.041 401.492 172.065 401.539C172.347 402.103 174.498 402.373 175.838 402.185C175.137 401.419 174.204 400.903 173.182 400.716C172.894 400.71 172.612 400.801 172.382 400.975Z" fill="#00A7B1"/>
<path d="M154.95 167.01C154.397 169.537 153.774 171.818 153.069 174.18C152.364 176.543 151.635 178.882 150.789 181.139C149.162 185.777 147.255 190.311 145.076 194.716L143.348 198.007C142.725 199.088 142.173 200.17 141.467 201.24L140.456 202.826C140.104 203.367 139.833 203.849 139.351 204.484C139.116 204.789 138.881 205.095 138.564 205.459C138.165 205.93 137.715 206.356 137.224 206.729C136.63 207.184 135.944 207.505 135.214 207.669C134.874 207.746 134.527 207.785 134.179 207.787C133.754 207.791 133.33 207.732 132.922 207.611C132.159 207.404 131.465 206.999 130.912 206.435C130.357 205.879 129.952 205.192 129.736 204.437C129.627 204.088 129.552 203.73 129.513 203.367C129.421 202.519 129.421 201.664 129.513 200.816C129.595 200.111 129.713 199.453 129.83 198.818C130.065 197.537 130.371 196.338 130.688 195.139C131.348 192.779 132.133 190.456 133.039 188.18L137.741 189.215L137.424 196.267C137.424 197.443 137.353 198.548 137.341 199.629C137.341 200.17 137.341 200.699 137.341 201.169C137.339 201.507 137.387 201.844 137.482 202.168C137.482 202.168 137.482 202.168 137.482 201.957C137.337 201.512 137.087 201.109 136.754 200.781C136.298 200.317 135.732 199.977 135.108 199.794C134.77 199.703 134.423 199.651 134.074 199.641C133.797 199.646 133.521 199.677 133.251 199.735C132.83 199.838 132.431 200.017 132.075 200.264C131.828 200.44 131.923 200.346 131.97 200.264L132.24 199.805L133.815 196.984C134.344 195.997 134.826 194.986 135.343 193.987L136.789 190.931C138.623 186.781 140.315 182.514 141.726 178.165C142.455 175.991 143.125 173.792 143.795 171.594C144.465 169.396 145.064 167.128 145.593 165.047L154.95 167.01Z" fill="#FF8B7B"/>
<path d="M150.93 154.773C147.521 155.326 142.114 176.99 142.114 176.99L149.978 183.043C149.978 183.043 157.865 167.386 158.206 160.345C158.441 155.244 153.504 154.362 150.93 154.773Z" fill="#FF8B7B"/>
<path d="M138.599 190.261L137.271 179.494L131.1 188.545C131.362 189.636 131.937 190.626 132.753 191.397C133.569 192.167 134.591 192.683 135.696 192.882L138.599 190.261Z" fill="#FF8B7B"/>
<path d="M181.727 416.597L172.323 416.914L170.525 384.095L183.573 384.283L181.727 416.597Z" fill="#FF8B7B"/>
<path d="M171.688 413.916L182.268 413.846C182.445 413.839 182.617 413.902 182.749 414.02C182.881 414.139 182.961 414.304 182.973 414.481L183.608 422.815C183.614 423.252 183.447 423.675 183.143 423.99C182.839 424.304 182.423 424.486 181.986 424.496C178.318 424.496 176.555 424.249 171.924 424.284C169.067 424.284 164.871 424.625 160.945 424.66C157.019 424.695 157.054 420.793 158.723 420.429C166.187 418.795 167.492 416.608 170.113 414.551C170.556 414.174 171.109 413.952 171.688 413.916Z" fill="#263238"/>
<path d="M150.354 154.703C150.354 154.703 145.652 155.878 145.652 211.513L183.373 214.852C185.265 199.347 186.793 189.814 199.288 158.758C194.162 157.189 188.924 156.01 183.619 155.232C177.959 154.311 172.239 153.805 166.505 153.716C158.982 153.727 150.354 154.703 150.354 154.703Z" fill="#00A7B1"/>
<path opacity="0.2" d="M191.801 165.858L193.811 172.711C192.236 176.955 190.931 180.704 189.838 184.078C189.005 177.935 189.679 171.682 191.801 165.858Z" fill="black"/>
<path d="M137.271 179.494L131.1 188.545L138.599 188.11L142.596 179.834L137.271 179.494Z" fill="#FF8B7B"/>
<path d="M141.185 200.311L148.238 200.205C148.47 200.201 148.699 200.147 148.909 200.048C149.119 199.949 149.306 199.806 149.457 199.63C149.608 199.453 149.72 199.246 149.785 199.024C149.851 198.801 149.868 198.566 149.837 198.336L147.638 182.526C147.586 182.13 147.39 181.766 147.086 181.506C146.782 181.245 146.393 181.106 145.993 181.116L138.94 181.221C138.708 181.222 138.478 181.273 138.267 181.37C138.056 181.468 137.869 181.609 137.717 181.785C137.565 181.961 137.453 182.168 137.389 182.391C137.324 182.614 137.308 182.849 137.341 183.079L139.539 198.889C139.591 199.286 139.788 199.651 140.091 199.913C140.395 200.176 140.784 200.317 141.185 200.311Z" fill="#263238"/>
<path d="M185.03 135.66C183.043 141.115 180.328 151.177 183.561 155.22C177.938 159.921 171.636 163.745 164.871 166.563C160.933 157.371 166.446 153.704 166.446 153.704C172.829 152.775 173.416 148.167 173.04 143.759L185.03 135.66Z" fill="#FF8B7B"/>
<path d="M159.193 129.407C158.206 145.734 148.391 150.413 150.695 158.794C153.951 170.548 167.234 161.344 167.234 161.344C167.234 161.344 160.005 163.695 159.546 157.983C159.17 153.281 175.862 154.009 171.23 142.948C168.256 135.825 159.193 129.407 159.193 129.407Z" fill="#263238"/>
<path opacity="0.2" d="M181.61 139.786L173.052 143.759C173.146 144.792 173.146 145.83 173.052 146.863C174.839 147.027 179.47 145.687 181.222 142.795C181.707 141.871 181.845 140.803 181.61 139.786Z" fill="black"/>
<path d="M186.511 120.309C187.369 129.571 187.933 133.486 184.019 138.916C178.142 147.086 166.563 146.122 162.955 137.283C159.699 129.336 158.841 115.513 167.269 110.47C169.12 109.346 171.229 108.715 173.394 108.636C175.558 108.557 177.707 109.033 179.636 110.019C181.565 111.005 183.209 112.468 184.412 114.269C185.616 116.07 186.338 118.15 186.511 120.309Z" fill="#FF8B7B"/>
<path d="M184.466 111.011C177.155 105.992 171.077 115.63 184.055 124.999C197.032 134.367 192.777 116.712 184.466 111.011Z" fill="#263238"/>
<path d="M180.575 108.319C183.596 111.034 165.612 121.049 155.832 117.723C146.052 114.396 153.904 106.932 157.466 105.968C154.409 108.919 159.758 113.397 162.344 110.6C164.93 107.802 174.51 102.877 180.575 108.319Z" fill="#263238"/>
<path d="M145.605 211.513C145.605 211.513 125.704 295.782 127.456 317.058C129.489 341.931 156.69 382.026 156.69 382.026L169.185 370.683C169.185 370.683 156.784 337.84 147.603 316.447C150.542 295.053 176.52 234.611 176.52 214.252L145.605 211.513Z" fill="#00A7B1"/>
<path opacity="0.6" d="M145.605 211.513C145.605 211.513 125.704 295.782 127.456 317.058C129.489 341.931 156.69 382.026 156.69 382.026L169.185 370.683C169.185 370.683 156.784 337.84 147.603 316.447C150.542 295.053 176.52 234.611 176.52 214.252L145.605 211.513Z" fill="black"/>
<path d="M171.489 372.376L156.725 383.378L152.94 380.498L169.138 367.721L171.489 372.376Z" fill="#00A7B1"/>
<path opacity="0.2" d="M160.333 248.576C149.366 263.763 148.837 291.692 149.519 307.349C153.281 292.938 161.168 271.415 167.457 252.02C167.304 244.591 165.458 241.464 160.333 248.576Z" fill="black"/>
<path d="M152.681 211.584C152.681 211.584 159.969 284.357 162.402 308.924C165.294 338.087 169.537 384.859 169.537 384.859L183.572 384.271C183.572 384.271 186.652 344.623 184.372 318.445C184.783 283.769 189.896 236.621 183.314 214.805L152.681 211.584Z" fill="#00A7B1"/>
<path opacity="0.6" d="M152.681 211.584C152.681 211.584 159.969 284.357 162.402 308.924C165.294 338.087 169.537 384.859 169.537 384.859L183.572 384.271C183.572 384.271 186.652 344.623 184.372 318.445C184.783 283.769 189.896 236.621 183.314 214.805L152.681 211.584Z" fill="black"/>
<path d="M184.642 386.846L168.539 386.387L167.41 381.321L185.63 380.815L184.642 386.846Z" fill="#00A7B1"/>
<path d="M172.1 125.422C172.217 126.163 171.912 126.833 171.418 126.915C170.924 126.997 170.443 126.445 170.325 125.74C170.207 125.034 170.513 124.329 171.007 124.247C171.5 124.164 171.982 124.67 172.1 125.422Z" fill="#263238"/>
<path d="M163.648 126.727C163.766 127.479 163.46 128.149 162.966 128.22C162.473 128.29 161.991 127.749 161.873 127.044C161.756 126.339 162.061 125.622 162.555 125.551C163.049 125.481 163.531 125.986 163.648 126.727Z" fill="#263238"/>
<path d="M162.767 125.516L160.898 125.281C160.898 125.281 162.038 126.539 162.767 125.516Z" fill="#263238"/>
<path d="M166.422 127.467C166.017 129.275 165.369 131.018 164.495 132.651C164.918 132.863 165.382 132.98 165.855 132.994C166.328 133.009 166.798 132.92 167.233 132.733L166.422 127.467Z" fill="#FF5652"/>
<path d="M172.1 134.791C171.718 134.926 171.325 135.024 170.924 135.084C170.867 135.095 170.807 135.082 170.759 135.049C170.711 135.016 170.677 134.965 170.666 134.908C170.661 134.879 170.662 134.849 170.668 134.82C170.675 134.791 170.688 134.763 170.705 134.739C170.723 134.715 170.745 134.695 170.771 134.679C170.796 134.664 170.824 134.654 170.854 134.649C171.788 134.528 172.68 134.187 173.457 133.654C174.234 133.12 174.872 132.41 175.321 131.582C175.348 131.531 175.393 131.492 175.447 131.473C175.502 131.453 175.561 131.454 175.614 131.476C175.642 131.487 175.666 131.504 175.687 131.525C175.707 131.546 175.723 131.571 175.734 131.598C175.745 131.626 175.751 131.655 175.75 131.684C175.75 131.714 175.744 131.743 175.732 131.77C174.962 133.212 173.658 134.296 172.1 134.791Z" fill="#263238"/>
<path d="M189.086 126.633C189.023 127.533 188.782 128.411 188.379 129.218C187.976 130.025 187.417 130.744 186.735 131.335C184.925 132.886 183.009 131.523 182.668 129.278C182.35 127.268 182.926 124.035 185.148 123.4C185.63 123.252 186.142 123.226 186.637 123.323C187.131 123.421 187.595 123.639 187.985 123.959C188.374 124.28 188.679 124.691 188.871 125.158C189.063 125.624 189.137 126.131 189.086 126.633Z" fill="#FF8B7B"/>
<path d="M175.944 120.791C175.885 120.802 175.825 120.802 175.766 120.79C175.708 120.778 175.652 120.754 175.603 120.72C175.154 120.387 174.632 120.165 174.08 120.073C173.528 119.981 172.962 120.021 172.429 120.191C172.375 120.214 172.318 120.226 172.259 120.225C172.201 120.225 172.143 120.213 172.089 120.19C172.035 120.167 171.987 120.134 171.946 120.091C171.906 120.049 171.874 119.999 171.853 119.944C171.811 119.835 171.813 119.714 171.859 119.606C171.905 119.498 171.992 119.413 172.1 119.368C172.769 119.141 173.483 119.079 174.181 119.187C174.879 119.296 175.54 119.572 176.109 119.991C176.204 120.058 176.269 120.159 176.291 120.273C176.313 120.387 176.29 120.506 176.226 120.603C176.157 120.696 176.057 120.762 175.944 120.791Z" fill="#263238"/>
<path d="M159.981 123.483C159.929 123.506 159.873 123.518 159.817 123.518C159.76 123.518 159.704 123.506 159.652 123.483C159.599 123.459 159.551 123.424 159.512 123.381C159.472 123.339 159.441 123.288 159.422 123.234C159.402 123.179 159.393 123.121 159.397 123.062C159.4 123.004 159.415 122.947 159.44 122.895C159.719 122.247 160.149 121.675 160.696 121.229C161.242 120.783 161.888 120.476 162.579 120.332C162.691 120.324 162.803 120.359 162.891 120.429C162.979 120.5 163.037 120.601 163.054 120.713C163.07 120.825 163.043 120.938 162.979 121.031C162.915 121.124 162.818 121.19 162.708 121.214C162.163 121.337 161.655 121.587 161.226 121.945C160.797 122.303 160.459 122.757 160.24 123.271C160.213 123.322 160.177 123.367 160.132 123.403C160.088 123.44 160.036 123.467 159.981 123.483Z" fill="#263238"/>
<path d="M201.769 170.043C201.945 171.747 202.039 173.24 202.086 174.827C202.133 176.414 202.168 177.942 202.156 179.529C202.109 182.663 201.91 185.798 201.557 188.932C201.197 192.105 200.607 195.248 199.794 198.336C199.374 199.931 198.864 201.501 198.266 203.038C197.972 203.814 197.643 204.59 197.302 205.389C197.302 205.389 197.125 205.765 197.008 205.977C196.884 206.22 196.738 206.452 196.573 206.67C196.283 207.1 195.943 207.494 195.562 207.846C194.944 208.375 194.25 208.811 193.505 209.139C192.44 209.584 191.315 209.87 190.167 209.985C189.25 210.086 188.327 210.126 187.404 210.103C185.744 210.058 184.087 209.912 182.444 209.668C179.365 209.181 176.316 208.522 173.311 207.693C170.36 206.882 167.433 205.988 164.577 205.036C161.72 204.084 158.876 203.026 156.043 201.839L157.512 197.325C160.369 197.948 163.272 198.607 166.164 199.159C169.055 199.711 171.935 200.334 174.803 200.758C177.672 201.181 180.54 201.616 183.314 201.792C184.639 201.897 185.97 201.92 187.299 201.863C187.866 201.836 188.432 201.773 188.991 201.674C189.33 201.622 189.659 201.519 189.967 201.369C189.967 201.369 189.967 201.369 189.791 201.463C189.682 201.546 189.587 201.645 189.508 201.757L189.367 201.968C189.367 201.968 189.262 202.203 189.367 202.051C189.591 201.439 189.814 200.875 190.002 200.193C190.402 198.924 190.731 197.619 191.025 196.291C191.575 193.573 191.968 190.826 192.2 188.063C192.459 185.265 192.541 182.42 192.541 179.576C192.541 178.153 192.541 176.731 192.541 175.309C192.541 173.886 192.412 172.417 192.33 171.148L201.769 170.043Z" fill="#FF8B7B"/>
<path d="M199.194 158.758C203.25 161.403 201.875 184.454 201.875 184.454L192.33 186.37C192.33 186.37 192.247 174.615 191.225 166.987C190.531 161.803 196.303 156.866 199.194 158.758Z" fill="#FF8B7B"/>
<path d="M166.517 415.01C166.402 414.857 166.324 414.68 166.29 414.493C166.255 414.305 166.264 414.112 166.317 413.928C166.339 413.792 166.394 413.664 166.478 413.555C166.563 413.447 166.673 413.361 166.799 413.305C167.974 412.8 170.654 414.622 170.96 414.822C170.994 414.846 171.021 414.881 171.035 414.921C171.05 414.96 171.052 415.004 171.042 415.045C171.032 415.089 171.01 415.13 170.979 415.163C170.948 415.196 170.909 415.22 170.866 415.233C169.632 415.527 167.433 415.903 166.611 415.104L166.517 415.01ZM170.255 414.916C169.079 414.222 167.551 413.435 166.952 413.74C166.897 413.766 166.85 413.806 166.815 413.855C166.78 413.905 166.758 413.962 166.752 414.022C166.709 414.157 166.702 414.302 166.733 414.44C166.764 414.578 166.831 414.706 166.928 414.81C167.375 415.21 168.597 415.257 170.255 414.939V414.916Z" fill="#00A7B1"/>
<path d="M169.596 414.175C169.264 413.841 169 413.445 168.821 413.01C168.641 412.574 168.549 412.107 168.55 411.636C168.602 411.462 168.707 411.308 168.85 411.196C168.993 411.084 169.168 411.02 169.35 411.013C169.514 410.987 169.682 410.999 169.841 411.048C170 411.097 170.145 411.182 170.266 411.295C171.219 412.189 171.054 414.892 171.042 415.01C171.041 415.05 171.029 415.089 171.008 415.124C170.988 415.159 170.959 415.188 170.925 415.21C170.89 415.227 170.852 415.236 170.813 415.236C170.774 415.236 170.736 415.227 170.701 415.21C170.281 414.925 169.908 414.576 169.596 414.175ZM170.043 411.73C170.015 411.696 169.983 411.664 169.949 411.636C169.874 411.563 169.783 411.508 169.683 411.476C169.583 411.443 169.477 411.434 169.373 411.448C169.079 411.448 169.02 411.613 168.985 411.718C168.809 412.365 169.773 413.881 170.619 414.587C170.697 413.599 170.498 412.61 170.043 411.73Z" fill="#00A7B1"/>
<path d="M184.243 212.665L184.654 216.192C184.748 216.462 184.395 216.709 183.961 216.662L145.17 213.229C144.829 213.229 144.571 213.006 144.582 212.794L144.806 209.362C144.806 209.127 145.147 208.951 145.511 208.986L183.702 212.371C183.81 212.369 183.916 212.395 184.011 212.447C184.106 212.498 184.186 212.574 184.243 212.665Z" fill="white"/>
<path d="M178.412 216.521L179.435 216.603C179.646 216.603 179.811 216.532 179.823 216.403L180.058 211.948C180.058 211.819 179.905 211.69 179.705 211.678L178.671 211.584C178.471 211.584 178.295 211.654 178.283 211.784L178.048 216.25C178.048 216.38 178.212 216.497 178.412 216.521Z" fill="#00A7B1"/>
<path opacity="0.6" d="M178.412 216.521L179.435 216.603C179.646 216.603 179.811 216.532 179.823 216.403L180.058 211.948C180.058 211.819 179.905 211.69 179.705 211.678L178.671 211.584C178.471 211.584 178.295 211.654 178.283 211.784L178.048 216.25C178.048 216.38 178.212 216.497 178.412 216.521Z" fill="black"/>
<path d="M147.956 213.817L148.978 213.911C149.19 213.911 149.355 213.841 149.366 213.711L149.601 209.244C149.601 209.115 149.449 208.998 149.249 208.974L148.226 208.892C148.015 208.892 147.85 208.962 147.838 209.092L147.603 213.547C147.591 213.676 147.756 213.805 147.956 213.817Z" fill="#00A7B1"/>
<path opacity="0.6" d="M147.956 213.817L148.978 213.911C149.19 213.911 149.355 213.841 149.366 213.711L149.601 209.244C149.601 209.115 149.449 208.998 149.249 208.974L148.226 208.892C148.015 208.892 147.85 208.962 147.838 209.092L147.603 213.547C147.591 213.676 147.756 213.805 147.956 213.817Z" fill="black"/>
<path d="M163.19 215.169L164.213 215.263C164.413 215.263 164.589 215.181 164.589 215.051L164.836 210.596C164.836 210.467 164.683 210.349 164.471 210.326L163.449 210.232C163.249 210.232 163.073 210.314 163.073 210.444L162.826 214.899C162.826 215.028 162.99 215.11 163.19 215.169Z" fill="#00A7B1"/>
<path opacity="0.6" d="M163.19 215.169L164.213 215.263C164.413 215.263 164.589 215.181 164.589 215.051L164.836 210.596C164.836 210.467 164.683 210.349 164.471 210.326L163.449 210.232C163.249 210.232 163.073 210.314 163.073 210.444L162.826 214.899C162.826 215.028 162.99 215.11 163.19 215.169Z" fill="black"/>
<path d="M158.982 197.607L153.105 189.767L150.66 199.171C150.66 199.171 155.032 202.991 158.747 201.522L158.982 197.607Z" fill="#FF8B7B"/>
<path d="M145.582 188.039L143.948 195.974L151.882 200.029L153.14 189.767L145.582 188.039Z" fill="#FF8B7B"/>
<path d="M171.23 124.211L169.35 123.976C169.35 123.976 170.443 125.234 171.23 124.211Z" fill="#263238"/>
</svg>
